<svg xmlns="http://www.w3.org/2000/svg" width="506.492" height="359.785" viewBox="0 0 506.492 359.785">
  <g id="_7880" data-name="7880" transform="translate(-187.354 -83.004)">
    <g id="Grupo_16" data-name="Grupo 16" transform="translate(212.958 400.063)">
      <path id="Caminho_36" data-name="Caminho 36" d="M794.553,1719.6c0,11.309-106.742,20.475-238.417,20.475S317.72,1730.909,317.72,1719.6s106.742-22.252,238.417-22.252S794.553,1708.3,794.553,1719.6Z" transform="translate(-317.72 -1697.35)" fill="#d9e1e8"/>
      <path id="Caminho_38" data-name="Caminho 38" d="M1304.542,1710.063c0,5.534-35.273,10.022-78.786,10.022s-78.786-4.488-78.786-10.022,35.273-10.022,78.786-10.022S1304.542,1704.528,1304.542,1710.063Z" transform="translate(-984.105 -1699.512)" fill="#bcc2c7"/>
    </g>
    <g id="Grupo_19" data-name="Grupo 19" transform="translate(617.156 206.732)">
      <g id="Grupo_18" data-name="Grupo 18">
        <path id="Caminho_39" data-name="Caminho 39" d="M2421.372,786.831l-42.163-14.512a5.126,5.126,0,0,1-3.18-6.519l16.989-49.361a5.126,5.126,0,0,1,6.518-3.18l42.163,14.512a5.126,5.126,0,0,1,3.18,6.518l-16.989,49.359A5.129,5.129,0,0,1,2421.372,786.831Z" transform="translate(-2375.748 -712.978)" fill="#f1f2f5"/>
        <g id="Grupo_17" data-name="Grupo 17" transform="translate(10.702 14.282)">
          <rect id="Retângulo_11" data-name="Retângulo 11" width="4.392" height="38.97" transform="translate(17.373 3.319) rotate(18.995)" fill="#fff"/>
          <rect id="Retângulo_12" data-name="Retângulo 12" width="4.392" height="38.968" transform="translate(23.583 5.413) rotate(18.989)" fill="#fff"/>
          <rect id="Retângulo_13" data-name="Retângulo 13" width="4.392" height="38.968" transform="translate(29.776 7.589) rotate(18.995)" fill="#fff"/>
          <rect id="Retângulo_14" data-name="Retângulo 14" width="4.392" height="38.968" transform="translate(35.933 9.698) rotate(18.997)" fill="#fff"/>
          <rect id="Retângulo_15" data-name="Retângulo 15" width="4.392" height="38.968" transform="translate(42.177 11.862) rotate(18.995)" fill="#fff"/>
          <rect id="Retângulo_16" data-name="Retângulo 16" width="4.392" height="2.058" transform="translate(18.467 0) rotate(18.997)" fill="#fff"/>
          <rect id="Retângulo_17" data-name="Retângulo 17" width="4.392" height="2.058" transform="translate(11.248 1.168) rotate(18.989)" fill="#fff"/>
          <rect id="Retângulo_18" data-name="Retângulo 18" width="4.392" height="2.058" transform="translate(9.123 7.326) rotate(18.989)" fill="#fff"/>
          <rect id="Retângulo_19" data-name="Retângulo 19" width="4.392" height="2.058" transform="translate(7.009 13.492) rotate(18.995)" fill="#fff"/>
          <rect id="Retângulo_20" data-name="Retângulo 20" width="4.392" height="2.058" transform="translate(4.907 19.592) rotate(18.989)" fill="#fff"/>
          <rect id="Retângulo_21" data-name="Retângulo 21" width="4.392" height="2.058" transform="translate(4.907 19.592) rotate(18.989)" fill="#fff"/>
          <rect id="Retângulo_22" data-name="Retângulo 22" width="4.392" height="2.058" transform="translate(2.789 25.74) rotate(18.989)" fill="#fff"/>
          <rect id="Retângulo_23" data-name="Retângulo 23" width="4.392" height="2.058" transform="translate(0.67 31.914) rotate(18.995)" fill="#fff"/>
          <rect id="Retângulo_24" data-name="Retângulo 24" width="4.392" height="2.058" transform="translate(24.702 2.172) rotate(18.995)" fill="#fff"/>
          <rect id="Retângulo_25" data-name="Retângulo 25" width="4.392" height="2.058" transform="translate(30.916 4.262) rotate(18.989)" fill="#fff"/>
          <rect id="Retângulo_26" data-name="Retângulo 26" width="4.392" height="2.058" transform="translate(37.115 6.397) rotate(18.989)" fill="#fff"/>
          <rect id="Retângulo_27" data-name="Retângulo 27" width="4.392" height="2.058" transform="translate(43.31 8.572) rotate(18.995)" fill="#fff"/>
        </g>
        <path id="Caminho_40" data-name="Caminho 40" d="M2539.606,753.92,2507.3,742.8a2.4,2.4,0,0,1-1.49-3.054h0a2.4,2.4,0,0,1,3.054-1.491l32.31,11.12a2.4,2.4,0,0,1,1.491,3.054h0A2.4,2.4,0,0,1,2539.606,753.92Z" transform="translate(-2480.157 -733.186)" fill="#fff"/>
      </g>
    </g>
    <g id="Grupo_23" data-name="Grupo 23" transform="translate(359.583 97.344)">
      <g id="Grupo_21" data-name="Grupo 21" transform="translate(0 0)">
        <g id="Grupo_20" data-name="Grupo 20">
          <path id="Caminho_41" data-name="Caminho 41" d="M1065.411,229.361c-.02,0-.039,0-.059,0a1.129,1.129,0,0,1-1.069-1.186,23.334,23.334,0,0,1,.88-5.022,1.128,1.128,0,0,1,2.168.621,21.079,21.079,0,0,0-.8,4.517A1.123,1.123,0,0,1,1065.411,229.361Zm2.641-9.252a1.129,1.129,0,0,1-.994-1.66,21.873,21.873,0,0,1,2.9-4.181,1.128,1.128,0,0,1,1.691,1.495,19.632,19.632,0,0,0-2.6,3.751A1.131,1.131,0,0,1,1068.053,220.109Zm6.352-7.165a1.129,1.129,0,0,1-.645-2.056,23.373,23.373,0,0,1,4.452-2.408,1.129,1.129,0,1,1,.858,2.088,21.024,21.024,0,0,0-4.022,2.174A1.14,1.14,0,0,1,1074.4,212.944Zm8.846-3.7a1.128,1.128,0,0,1-.236-2.231,35.8,35.8,0,0,1,4.934-.687,1.128,1.128,0,0,1,.161,2.251,33.374,33.374,0,0,0-4.621.644A1.237,1.237,0,0,1,1083.25,209.242Zm13.29-.587c-.7,0-1.422-.026-2.149-.073-.53-.035-1.061-.063-1.577-.083a1.128,1.128,0,1,1,.083-2.255c.54.02,1.094.049,1.648.086a29.356,29.356,0,0,0,3.1.047,1.128,1.128,0,0,1,.091,2.255C1097.342,208.647,1096.942,208.654,1096.541,208.654Zm5.923-.68a1.128,1.128,0,0,1-.267-2.223,18.554,18.554,0,0,0,4.248-1.6,1.129,1.129,0,0,1,1.058,1.993,20.849,20.849,0,0,1-4.767,1.8A1.184,1.184,0,0,1,1102.464,207.975Zm8.423-4.509a1.127,1.127,0,0,1-.774-1.948,17.98,17.98,0,0,0,2.871-3.512,1.128,1.128,0,0,1,1.909,1.2,20.2,20.2,0,0,1-3.233,3.952A1.123,1.123,0,0,1,1110.888,203.466Zm5.15-8.076a1.13,1.13,0,0,1-1.062-1.51,25.159,25.159,0,0,0,1.141-4.48,1.128,1.128,0,1,1,2.227.357,27.373,27.373,0,0,1-1.245,4.883A1.123,1.123,0,0,1,1116.037,195.39Zm150.087-1.821a1.129,1.129,0,0,1-.968-.546c-.807-1.339-1.683-2.675-2.6-3.967a1.128,1.128,0,1,1,1.836-1.31c.956,1.341,1.864,2.724,2.7,4.115a1.126,1.126,0,0,1-.385,1.548A1.109,1.109,0,0,1,1266.125,193.569Zm-156.944-7.475c-.022,0-.043,0-.065,0a32.837,32.837,0,0,1-4.961-.652,1.128,1.128,0,0,1,.473-2.206,30.374,30.374,0,0,0,4.618.6,1.128,1.128,0,0,1-.065,2.255Zm4.832-.014a1.128,1.128,0,0,1-.063-2.255c.807-.047,1.64-.116,2.492-.206a28.944,28.944,0,0,0-.367-3.486,1.129,1.129,0,1,1,2.227-.373,31.283,31.283,0,0,1,.387,3.576,1.128,1.128,0,0,1,.294,2.237c-.242.035-.481.069-.721.1a1.138,1.138,0,0,1-.658.216,1.153,1.153,0,0,1-.428-.081c-1.062.122-2.1.212-3.1.269C1114.056,186.08,1114.034,186.08,1114.013,186.08Zm146.509-.381a1.127,1.127,0,0,1-.868-.407c-1-1.2-2.066-2.4-3.168-3.547a1.128,1.128,0,1,1,1.628-1.561c1.137,1.186,2.239,2.42,3.274,3.665a1.129,1.129,0,0,1-.866,1.85Zm-136.94-.966a1.128,1.128,0,0,1-.232-2.231c1.489-.316,3.052-.691,4.647-1.116a1.129,1.129,0,0,1,.581,2.182c-1.632.434-3.233.819-4.759,1.141A1.429,1.429,0,0,1,1123.581,184.733Zm-23.79-.729a1.151,1.151,0,0,1-.452-.094,21.517,21.517,0,0,1-3.678-2.048q-.36-.25-.7-.5a1.128,1.128,0,0,1,1.322-1.828c.216.157.44.314.668.473a19.491,19.491,0,0,0,3.294,1.834,1.127,1.127,0,0,1-.452,2.16Zm33.141-1.742a1.129,1.129,0,0,1-.334-2.208c1.465-.454,3-.958,4.562-1.5a1.129,1.129,0,1,1,.738,2.133c-1.583.548-3.142,1.059-4.631,1.52A1.117,1.117,0,0,1,1132.932,182.262Zm9.148-3.148a1.128,1.128,0,0,1-.4-2.184c1.442-.54,2.952-1.125,4.49-1.738a1.129,1.129,0,0,1,.835,2.1c-1.552.619-3.078,1.21-4.533,1.756A1.21,1.21,0,0,1,1142.08,179.114Zm111.758-.4a1.119,1.119,0,0,1-.76-.295c-1.161-1.059-2.38-2.1-3.621-3.091a1.128,1.128,0,0,1,1.408-1.764c1.28,1.023,2.537,2.1,3.733,3.188a1.127,1.127,0,0,1-.76,1.962Zm-161.932-.228a1.128,1.128,0,0,1-.792-.324,15.955,15.955,0,0,1-3.148-4.118,1.129,1.129,0,1,1,2.019-1.01,13.718,13.718,0,0,0,2.71,3.518,1.129,1.129,0,0,1,.014,1.595A1.106,1.106,0,0,1,1091.906,178.489Zm24.074-2.09a1.128,1.128,0,0,1-1.062-.748,20,20,0,0,0-2-4.107,1.128,1.128,0,0,1,1.893-1.226,22.367,22.367,0,0,1,2.227,4.57,1.129,1.129,0,0,1-.682,1.444A1.1,1.1,0,0,1,1115.98,176.4Zm35.087-.864a1.129,1.129,0,0,1-.436-2.17c1.412-.591,2.9-1.227,4.437-1.893a1.129,1.129,0,0,1,.9,2.07c-1.54.67-3.042,1.31-4.464,1.905A1.144,1.144,0,0,1,1151.068,175.535Zm95.223-2.856a1.124,1.124,0,0,1-.646-.2c-1.29-.905-2.63-1.785-3.985-2.616a1.128,1.128,0,1,1,1.18-1.923c1.392.854,2.771,1.76,4.1,2.693a1.127,1.127,0,0,1-.648,2.05Zm-86.346-.994a1.129,1.129,0,0,1-.459-2.16c1.375-.613,2.814-1.261,4.4-1.984a1.129,1.129,0,0,1,.935,2.056c-1.593.725-3.038,1.375-4.419,1.99A1.119,1.119,0,0,1,1159.945,171.686Zm-71.358-1.673a1.128,1.128,0,0,1-1.037-1.571,7.674,7.674,0,0,1,4.042-3.783,1.128,1.128,0,0,1,.945,2.048,5.5,5.5,0,0,0-2.911,2.618A1.129,1.129,0,0,1,1088.587,170.013Zm22.064-1.528a1.132,1.132,0,0,1-.685-.232,8.872,8.872,0,0,0-2.473-1.353c-.493-.171-1-.33-1.5-.473a1.129,1.129,0,1,1,.613-2.172c.548.155,1.1.326,1.632.513a11.146,11.146,0,0,1,3.1,1.693,1.129,1.129,0,0,1-.687,2.025Zm58.107-.8a1.128,1.128,0,0,1-.469-2.154l3.034-1.394,1.361-.627a1.128,1.128,0,1,1,.943,2.05l-1.361.625-3.036,1.394A1.1,1.1,0,0,1,1168.757,167.689Zm69.3-.069a1.123,1.123,0,0,1-.53-.134c-1.395-.744-2.832-1.459-4.27-2.121a1.127,1.127,0,1,1,.943-2.048c1.479.682,2.956,1.414,4.391,2.182a1.126,1.126,0,0,1-.534,2.121ZM1096.721,165.6a1.128,1.128,0,0,1-.124-2.249,24.718,24.718,0,0,1,5.062-.022,1.129,1.129,0,0,1-.216,2.247,22.4,22.4,0,0,0-4.594.018C1096.806,165.594,1096.763,165.6,1096.721,165.6Zm80.831-1.94a1.128,1.128,0,0,1-.469-2.154c.509-.232,1.014-.462,1.518-.689.974-.442,1.984-.86,3-1.243a1.128,1.128,0,0,1,.8,2.111c-.968.365-1.93.764-2.861,1.186q-.754.342-1.514.689A1.154,1.154,0,0,1,1177.552,163.655Zm51.72-.077a1.128,1.128,0,0,1-.411-.079c-1.479-.577-2.989-1.116-4.491-1.6a1.128,1.128,0,0,1,.693-2.147c1.546.5,3.1,1.053,4.619,1.646a1.129,1.129,0,0,1-.411,2.18Zm-9.2-2.97a1.146,1.146,0,0,1-.281-.035c-1.542-.4-3.105-.746-4.651-1.041a1.128,1.128,0,1,1,.424-2.215c1.591.3,3.2.664,4.788,1.072a1.127,1.127,0,0,1-.281,2.219Zm-33.483-.346a1.128,1.128,0,0,1-.3-2.215c1.563-.426,3.183-.792,4.814-1.084a1.128,1.128,0,1,1,.4,2.221c-1.565.281-3.119.63-4.619,1.039A1.184,1.184,0,0,1,1186.592,160.263Zm23.989-1.465a1.1,1.1,0,0,1-.139-.008c-1.581-.2-3.176-.34-4.739-.424a1.128,1.128,0,1,1,.124-2.253c1.614.088,3.26.236,4.894.438a1.128,1.128,0,0,1-.14,2.247Zm-14.483-.253a1.128,1.128,0,0,1-.106-2.251c1.608-.153,3.262-.245,4.914-.275a1.129,1.129,0,1,1,.041,2.257c-1.594.028-3.189.118-4.741.265A.977.977,0,0,1,1196.1,158.545Z" transform="translate(-1064.282 -156.019)" fill="#282c37"/>
        </g>
      </g>
      <g id="Grupo_22" data-name="Grupo 22" transform="translate(177.561 24.914)">
        <path id="Caminho_42" data-name="Caminho 42" d="M2081.935,307.66l-3.655,5.984,31.456,21.459Z" transform="translate(-2056.692 -302.791)" fill="#286c9e"/>
        <path id="Caminho_43" data-name="Caminho 43" d="M2061.77,374.7l1.9,6.862,31.395,6.426Z" transform="translate(-2043.424 -356.665)" fill="#286c9e"/>
        <path id="Caminho_44" data-name="Caminho 44" d="M2021.4,347.02l-53.044-18.079,18.346-6.452Z" transform="translate(-1968.36 -314.709)" fill="#2b90d9"/>
        <path id="Caminho_45" data-name="Caminho 45" d="M2096.89,287.739l27.8,27.443-16.272-32.312Z" transform="translate(-2071.647 -282.87)" fill="#2b90d9"/>
      </g>
    </g>
    <g id="Grupo_24" data-name="Grupo 24" transform="translate(278.724 117.558)">
      <path id="Caminho_46" data-name="Caminho 46" d="M700.6,260.132l10.2,25.532a1.893,1.893,0,0,1-1.057,2.463L665.375,305.85a1.894,1.894,0,0,1-2.463-1.059l-10.2-25.53a1.893,1.893,0,0,1,1.057-2.463l44.373-17.725A1.892,1.892,0,0,1,700.6,260.132Z" transform="translate(-652.577 -258.937)" fill="#286c9e"/>
      <path id="Caminho_47" data-name="Caminho 47" d="M700.612,260.136l.564,1.412-14.416,22.6a6.038,6.038,0,0,1-6.617,2.71l-27.1-6.78-.322-.805a1.9,1.9,0,0,1,1.057-2.465l44.369-17.725A1.891,1.891,0,0,1,700.612,260.136Z" transform="translate(-652.585 -258.941)" fill="#2b90d9"/>
    </g>
    <g id="Grupo_53" data-name="Grupo 53" transform="translate(316.697 169.276)">
      <g id="Grupo_25" data-name="Grupo 25" transform="translate(207.196 0.143)">
        <path id="Caminho_48" data-name="Caminho 48" d="M1953.523,590.239c16-14.94,17.185-39.669,2.651-55.232s-39.286-16.068-55.285-1.127Z" transform="translate(-1900.89 -522.997)" fill="#f5e34c"/>
        <rect id="Retângulo_28" data-name="Retângulo 28" width="39.357" height="14.219" transform="matrix(0.688, 0.725, -0.725, 0.688, 13.234, 24.974)" fill="#e5c83c"/>
      </g>
      <g id="Grupo_26" data-name="Grupo 26">
        <path id="Caminho_49" data-name="Caminho 49" d="M858.743,589.509c-16-14.94-17.185-39.669-2.651-55.232s39.286-16.067,55.285-1.127Z" transform="translate(-845.922 -522.267)" fill="#f5e34c"/>
        <rect id="Retângulo_29" data-name="Retângulo 29" width="39.357" height="14.219" transform="matrix(-0.688, 0.725, -0.725, -0.688, 62.541, 34.766)" fill="#e5c83c"/>
      </g>
      <ellipse id="Elipse_2" data-name="Elipse 2" cx="105.989" cy="105.899" rx="105.989" ry="105.899" transform="translate(30.11 22.974)" fill="#fff"/>
      <g id="Grupo_49" data-name="Grupo 49" transform="translate(37.012 14.397)">
        <g id="Grupo_28" data-name="Grupo 28" transform="translate(93.152)">
          <g id="Grupo_27" data-name="Grupo 27">
            <path id="Caminho_50" data-name="Caminho 50" d="M1514.605,595.57a5.933,5.933,0,0,0-5.935,5.931v14.182a5.935,5.935,0,0,0,11.87,0V601.5A5.933,5.933,0,0,0,1514.605,595.57Z" transform="translate(-1508.67 -595.57)" fill="#171629"/>
          </g>
        </g>
        <g id="Grupo_30" data-name="Grupo 30" transform="translate(39.268 15.58)">
          <g id="Grupo_29" data-name="Grupo 29">
            <path id="Caminho_51" data-name="Caminho 51" d="M1237.281,675.693a5.935,5.935,0,0,0-2.174,8.106l7.09,12.281a5.936,5.936,0,0,0,10.282-5.935l-7.092-12.281A5.933,5.933,0,0,0,1237.281,675.693Z" transform="translate(-1234.312 -674.896)" fill="#171629"/>
          </g>
        </g>
        <g id="Grupo_32" data-name="Grupo 32" transform="translate(0 55.328)">
          <g id="Grupo_31" data-name="Grupo 31">
            <path id="Caminho_52" data-name="Caminho 52" d="M1035.169,880.253a5.933,5.933,0,0,0,2.168,8.105l12.281,7.09a5.936,5.936,0,0,0,5.935-10.282l-12.281-7.09A5.931,5.931,0,0,0,1035.169,880.253Z" transform="translate(-1034.372 -877.282)" fill="#5f466e"/>
          </g>
        </g>
        <g id="Grupo_34" data-name="Grupo 34" transform="translate(0.658 156.183)">
          <g id="Grupo_33" data-name="Grupo 33">
            <path id="Caminho_53" data-name="Caminho 53" d="M1038.519,1406.788a5.933,5.933,0,0,0,8.105,2.174l12.281-7.09a5.936,5.936,0,0,0-5.935-10.281l-12.281,7.09A5.934,5.934,0,0,0,1038.519,1406.788Z" transform="translate(-1037.722 -1390.796)" fill="#5f466e"/>
          </g>
        </g>
        <g id="Grupo_36" data-name="Grupo 36" transform="translate(40.406 190.261)">
          <g id="Grupo_35" data-name="Grupo 35">
            <path id="Caminho_54" data-name="Caminho 54" d="M1243.076,1587.665a5.934,5.934,0,0,0,8.106-2.17l7.09-12.283a5.936,5.936,0,0,0-10.282-5.935l-7.09,12.281A5.938,5.938,0,0,0,1243.076,1587.665Z" transform="translate(-1240.106 -1564.312)" fill="#171629"/>
          </g>
        </g>
        <g id="Grupo_38" data-name="Grupo 38" transform="translate(94.468 202.501)">
          <g id="Grupo_37" data-name="Grupo 37">
            <path id="Caminho_55" data-name="Caminho 55" d="M1521.305,1652.673a5.933,5.933,0,0,0,5.935-5.931v-14.182a5.935,5.935,0,0,0-11.871,0v14.182A5.932,5.932,0,0,0,1521.305,1652.673Z" transform="translate(-1515.37 -1626.63)" fill="#171629"/>
          </g>
        </g>
        <g id="Grupo_40" data-name="Grupo 40" transform="translate(141.26 189.606)">
          <g id="Grupo_39" data-name="Grupo 39">
            <path id="Caminho_56" data-name="Caminho 56" d="M1769.608,1584.327a5.935,5.935,0,0,0,2.174-8.105l-7.09-12.281a5.936,5.936,0,0,0-10.282,5.935l7.09,12.281A5.935,5.935,0,0,0,1769.608,1584.327Z" transform="translate(-1753.616 -1560.976)" fill="#171629"/>
          </g>
        </g>
        <g id="Grupo_42" data-name="Grupo 42" transform="translate(175.344 155.045)">
          <g id="Grupo_41" data-name="Grupo 41">
            <path id="Caminho_57" data-name="Caminho 57" d="M1950.511,1400.992a5.934,5.934,0,0,0-2.168-8.105l-12.281-7.09a5.936,5.936,0,0,0-5.935,10.282l12.283,7.09A5.932,5.932,0,0,0,1950.511,1400.992Z" transform="translate(-1927.162 -1385.002)" fill="#171629"/>
          </g>
        </g>
        <g id="Grupo_44" data-name="Grupo 44" transform="translate(187.578 107.282)">
          <g id="Grupo_43" data-name="Grupo 43">
            <path id="Caminho_58" data-name="Caminho 58" d="M2015.493,1147.745a5.933,5.933,0,0,0-5.931-5.935h-14.182a5.935,5.935,0,0,0,0,11.871h14.182A5.933,5.933,0,0,0,2015.493,1147.745Z" transform="translate(-1989.45 -1141.81)" fill="#171629"/>
          </g>
        </g>
        <g id="Grupo_46" data-name="Grupo 46" transform="translate(174.685 53.398)">
          <g id="Grupo_45" data-name="Grupo 45">
            <path id="Caminho_59" data-name="Caminho 59" d="M1947.157,870.421a5.935,5.935,0,0,0-8.106-2.174l-12.281,7.09a5.936,5.936,0,0,0,5.935,10.281l12.283-7.09A5.936,5.936,0,0,0,1947.157,870.421Z" transform="translate(-1923.806 -867.452)" fill="#171629"/>
          </g>
        </g>
        <g id="Grupo_48" data-name="Grupo 48" transform="translate(140.12 14.13)">
          <g id="Grupo_47" data-name="Grupo 47">
            <path id="Caminho_60" data-name="Caminho 60" d="M1763.8,668.312a5.937,5.937,0,0,0-8.107,2.168l-7.09,12.281a5.936,5.936,0,0,0,10.281,5.935l7.09-12.281A5.93,5.93,0,0,0,1763.8,668.312Z" transform="translate(-1747.812 -667.516)" fill="#171629"/>
          </g>
        </g>
      </g>
      <g id="Grupo_50" data-name="Grupo 50" transform="translate(82.346 52.417)">
        <path id="Caminho_61" data-name="Caminho 61" d="M1292.447,1184.621c16.447-5.69,30.967-6.87,32.43-2.636s-10.68,12.277-27.127,17.965-30.966,6.87-32.429,2.636S1276,1190.311,1292.447,1184.621Z" transform="translate(-1265.2 -1102.792)" fill="#171629"/>
        <path id="Caminho_62" data-name="Caminho 62" d="M1467.771,827.122c5.692,22.06,6.79,40.847,2.453,41.967s-12.468-15.855-18.159-37.915-6.79-40.847-2.453-41.967S1462.079,805.064,1467.771,827.122Z" transform="translate(-1411.263 -789.154)" fill="#171629"/>
        <path id="Caminho_63" data-name="Caminho 63" d="M1516.591,1154.019a9.842,9.842,0,1,0-.475-13.917A9.833,9.833,0,0,0,1516.591,1154.019Z" transform="translate(-1464.708 -1068.664)" fill="#171629"/>
        <path id="Caminho_64" data-name="Caminho 64" d="M1536.3,1167.9a5.713,5.713,0,1,0-.277-8.078A5.705,5.705,0,0,0,1536.3,1167.9Z" transform="translate(-1481.598 -1085.565)" fill="#171629"/>
      </g>
      <path id="Caminho_65" data-name="Caminho 65" d="M1118.282,582.609a124.22,124.22,0,1,0,0,175.6A124.35,124.35,0,0,0,1118.282,582.609ZM1105.355,745.29a105.945,105.945,0,1,1,0-149.765A106.055,106.055,0,0,1,1105.355,745.29Z" transform="translate(-894.309 -541.534)" fill="#282c37"/>
      <g id="Grupo_51" data-name="Grupo 51" transform="translate(4.294 9.698)">
        <path id="Caminho_66" data-name="Caminho 66" d="M875.82,621.944a2,2,0,0,1-1.719-.968c-5.807-9.6-7.624-18.9-5.4-27.655,3.513-13.807,15.779-21.1,16.3-21.4a2.008,2.008,0,0,1,2.025,3.468c-.171.1-11.373,6.827-14.441,18.958-1.938,7.662-.273,15.922,4.949,24.548a2.008,2.008,0,0,1-1.719,3.048Z" transform="translate(-867.784 -571.647)" fill="#fff"/>
      </g>
      <g id="Grupo_52" data-name="Grupo 52" transform="translate(248.218 7.412)">
        <path id="Caminho_67" data-name="Caminho 67" d="M2124.485,609.7a2,2,0,0,0,1.666-1.057c5.295-9.889,6.621-19.275,3.934-27.9-4.234-13.6-16.865-20.237-17.4-20.514a2.008,2.008,0,0,0-1.841,3.57c.177.092,11.715,6.22,15.417,18.175,2.337,7.55,1.11,15.885-3.651,24.774a2.007,2.007,0,0,0,.823,2.718A2.035,2.035,0,0,0,2124.485,609.7Z" transform="translate(-2109.756 -560.006)" fill="#fff"/>
      </g>
    </g>
    <g id="Grupo_88" data-name="Grupo 88" transform="translate(249.075 224.118)">
      <g id="Grupo_62" data-name="Grupo 62" transform="translate(40.069 12.264)">
        <g id="Grupo_54" data-name="Grupo 54" transform="translate(0 11.698)">
          <path id="Caminho_68" data-name="Caminho 68" d="M722.238,926.173s1.1,7.746,1.55,13.6c-2.791-1.184-18.157-1.665-18.157-1.665l2.257,9.93s23.558,8.777,25.893-5.01c1.55-9.15-6.157-19.52-6.157-19.52Z" transform="translate(-705.63 -923.51)" fill="#ffa07a"/>
        </g>
        <g id="Grupo_61" data-name="Grupo 61" transform="translate(9.516)">
          <g id="Grupo_55" data-name="Grupo 55" transform="translate(2.717 3.505)">
            <path id="Caminho_69" data-name="Caminho 69" d="M772.382,892.775l-.057-.143s-2.952-4.307-4.345-6.263c-.646-1.809,3.777-5.44,7.184-4.388a17.522,17.522,0,0,1,2.365,7.825c.049.059.1.12.147.181A50.1,50.1,0,0,1,772.382,892.775Z" transform="translate(-767.917 -881.793)" fill="#ffa07a"/>
          </g>
          <g id="Grupo_56" data-name="Grupo 56" transform="translate(0.504 8.904)">
            <path id="Caminho_70" data-name="Caminho 70" d="M762.652,913.334h-.033c-.644-.02-1.842-.277-5.407-2.088a1.037,1.037,0,1,1,.941-1.848c3.258,1.658,4.256,1.856,4.533,1.864a1.036,1.036,0,0,1-.033,2.072Z" transform="translate(-756.645 -909.285)" fill="#ffa07a"/>
          </g>
          <g id="Grupo_57" data-name="Grupo 57" transform="translate(0 3.015)">
            <path id="Caminho_71" data-name="Caminho 71" d="M758.305,885.636a1.032,1.032,0,0,1-.843-.434c-.016-.022-1.51-2.127-3.162-4.232a1.032,1.032,0,1,1,1.624-1.275c1.683,2.145,3.207,4.291,3.223,4.313a1.032,1.032,0,0,1-.843,1.628Z" transform="translate(-754.081 -879.3)" fill="#ffa07a"/>
          </g>
          <g id="Grupo_58" data-name="Grupo 58" transform="translate(1.638 1.154)">
            <path id="Caminho_72" data-name="Caminho 72" d="M766.493,876.713a1.03,1.03,0,0,1-.9-.52c-.012-.02-1.188-2.082-3-4.763a1.031,1.031,0,0,1,1.711-1.153c1.854,2.75,3.031,4.81,3.08,4.9a1.029,1.029,0,0,1-.9,1.54Z" transform="translate(-762.422 -869.822)" fill="#ffa07a"/>
          </g>
          <g id="Grupo_59" data-name="Grupo 59" transform="translate(4.07 0.385)">
            <path id="Caminho_73" data-name="Caminho 73" d="M777.792,871.887a1.032,1.032,0,0,1-.945-.617c-.008-.018-.825-1.864-1.913-3.834a1.032,1.032,0,1,1,1.807-1c1.135,2.052,1.96,3.92,2,4a1.03,1.03,0,0,1-.528,1.359A.983.983,0,0,1,777.792,871.887Z" transform="translate(-774.806 -865.906)" fill="#ffa07a"/>
          </g>
          <g id="Grupo_60" data-name="Grupo 60" transform="translate(6.642)">
            <path id="Caminho_74" data-name="Caminho 74" d="M790.83,870.258a1.031,1.031,0,0,1-.966-.67,40.8,40.8,0,0,0-1.846-4.126,1.032,1.032,0,1,1,1.825-.964,42.208,42.208,0,0,1,1.956,4.37,1.031,1.031,0,0,1-.6,1.328A1.135,1.135,0,0,1,790.83,870.258Z" transform="translate(-787.897 -863.947)" fill="#ffa07a"/>
          </g>
        </g>
      </g>
      <g id="Grupo_66" data-name="Grupo 66" transform="translate(25.884 190.639)">
        <path id="Caminho_75" data-name="Caminho 75" d="M640.55,1780.132l.5-7.962,8.83.4-1.19,6.805-2.783,3.05Z" transform="translate(-639.147 -1772.17)" fill="#ffa07a"/>
        <path id="Caminho_76" data-name="Caminho 76" d="M640.55,1799.514l.2-3.044s4.57,2.084,8.367,0c-.2,1.131-.44,2.573-.44,2.573s-4.533,2.974-4.633,2.974S640.55,1799.514,640.55,1799.514Z" transform="translate(-639.147 -1791.698)" fill="#fff"/>
        <g id="Grupo_65" data-name="Grupo 65" transform="translate(0 7.206)">
          <path id="Caminho_77" data-name="Caminho 77" d="M654.751,1816.783a1.042,1.042,0,0,1-.238.575c-.283.175-9.537.031-15.895-.165l-.894-.03c-1.734-.059-3.184-.12-4.067-.175-.051-.257-.092-.513-.128-.76a10.9,10.9,0,0,1,1.112-6.964c2.247,1.261,5.046,1.456,8.308-.4a11.053,11.053,0,0,0,1.809,1.182,10.586,10.586,0,0,0,1.257.473h0c.2.061.395.118.589.165,0,0,0,0,0,0a14.459,14.459,0,0,0,1.453.277h0c1.909.271,3.578.228,4.851,1.023A4.7,4.7,0,0,1,654.751,1816.783Z" transform="translate(-633.405 -1808.86)" fill="#686e9e"/>
          <path id="Caminho_78" data-name="Caminho 78" d="M655.261,1846.934a1.041,1.041,0,0,1-.238.575c-.283.175-9.537.032-15.895-.165l-.894-.029c-1.734-.059-3.184-.12-4.067-.175-.051-.257-.092-.513-.128-.76Z" transform="translate(-633.915 -1839.011)" fill="#51567c"/>
          <g id="Grupo_63" data-name="Grupo 63" transform="translate(10.102 1.184)">
            <path id="Caminho_79" data-name="Caminho 79" d="M687.353,1815.361a.212.212,0,0,1-.043.012,2.988,2.988,0,0,0-1.575,1.214.48.48,0,0,1-.823-.493,3.585,3.585,0,0,1,1.182-1.2A10.346,10.346,0,0,0,687.353,1815.361Z" transform="translate(-684.843 -1814.89)" fill="#51567c"/>
          </g>
          <g id="Grupo_64" data-name="Grupo 64" transform="translate(12.295 1.822)">
            <path id="Caminho_80" data-name="Caminho 80" d="M698.37,1818.412l-.014,0a2.727,2.727,0,0,0-1.457,1.172.484.484,0,0,1-.66.167.48.48,0,0,1-.163-.66,3.57,3.57,0,0,1,.839-.958s0,0,0,0C697.415,1818.258,697.9,1818.345,698.37,1818.412Z" transform="translate(-696.006 -1818.136)" fill="#51567c"/>
          </g>
        </g>
      </g>
      <g id="Grupo_71" data-name="Grupo 71" transform="translate(2.516 190.639)">
        <path id="Caminho_81" data-name="Caminho 81" d="M521.57,1780.132l.5-7.962,8.83.4-1.19,6.805-2.783,3.05Z" transform="translate(-520.167 -1772.17)" fill="#ffa07a"/>
        <path id="Caminho_82" data-name="Caminho 82" d="M529.72,1801.112l.326-2.192a12.721,12.721,0,0,1-8.357.179c-.065,1.375-.13,2.534-.13,2.534l4.468,2.084Z" transform="translate(-520.159 -1793.666)" fill="#fff"/>
        <g id="Grupo_70" data-name="Grupo 70" transform="translate(0 7.206)">
          <path id="Caminho_83" data-name="Caminho 83" d="M535.771,1816.783a1.043,1.043,0,0,1-.238.575c-.283.175-9.537.031-15.895-.165l-.894-.03c-1.734-.059-3.184-.12-4.067-.175-.051-.257-.092-.513-.128-.76a10.905,10.905,0,0,1,1.112-6.964c2.247,1.261,5.046,1.456,8.308-.4a11.059,11.059,0,0,0,1.809,1.182,10.589,10.589,0,0,0,1.257.473h0c.2.061.395.118.589.165,0,0,0,0,0,0a14.453,14.453,0,0,0,1.453.277h0c1.909.271,3.578.228,4.851,1.023A4.7,4.7,0,0,1,535.771,1816.783Z" transform="translate(-514.425 -1808.86)" fill="#686e9e"/>
          <path id="Caminho_84" data-name="Caminho 84" d="M536.281,1846.934a1.042,1.042,0,0,1-.238.575c-.283.175-9.537.032-15.895-.165l-.894-.029c-1.734-.059-3.184-.12-4.067-.175-.051-.257-.092-.513-.128-.76Z" transform="translate(-514.935 -1839.011)" fill="#51567c"/>
          <g id="Grupo_67" data-name="Grupo 67" transform="translate(10.102 1.184)">
            <path id="Caminho_85" data-name="Caminho 85" d="M568.372,1815.361a.208.208,0,0,1-.043.012,2.988,2.988,0,0,0-1.575,1.214.48.48,0,0,1-.823-.493,3.584,3.584,0,0,1,1.182-1.2A10.352,10.352,0,0,0,568.372,1815.361Z" transform="translate(-565.863 -1814.89)" fill="#51567c"/>
          </g>
          <g id="Grupo_69" data-name="Grupo 69" transform="translate(12.295 1.822)">
            <g id="Grupo_68" data-name="Grupo 68">
              <path id="Caminho_86" data-name="Caminho 86" d="M579.39,1818.412l-.014,0a2.726,2.726,0,0,0-1.457,1.172.484.484,0,0,1-.66.167.48.48,0,0,1-.163-.66,3.569,3.569,0,0,1,.839-.958s0,0,0,0C578.435,1818.258,578.918,1818.345,579.39,1818.412Z" transform="translate(-577.026 -1818.136)" fill="#51567c"/>
            </g>
          </g>
        </g>
      </g>
      <path id="Caminho_87" data-name="Caminho 87" d="M511.081,1307.834s1.744,23.566.974,38.5c-.878,17.069-4.509,43.929-4.215,45.962,5.15,4.792,15.361,3.629,14.981,2.907,1.569-5.582,8.408-31.854,8.408-42.409,0-4.187,1.508-30.521,1.508-30.521s8.286,23.863,7.116,30.454-10.541,39.63-7.717,41.637,12.843,1.41,14.1-.811,12.163-35.547,11.849-41.916-2.2-16.066-2.424-25.477c-.145-5.953-5.383-25.974-5.383-25.974Z" transform="translate(-506.604 -1202.248)" fill="#282c37"/>
      <g id="Grupo_72" data-name="Grupo 72" transform="translate(26.148 110.899)">
        <path id="Caminho_88" data-name="Caminho 88" d="M635.483,1377.494l-.733-2.17.46-6.676a.537.537,0,0,1,.328-.456l4.8-2.033.422,1-4.5,1.905Z" transform="translate(-634.75 -1366.16)" fill="#686e9e"/>
      </g>
      <g id="Grupo_73" data-name="Grupo 73" transform="translate(0 32.506)">
        <path id="Caminho_89" data-name="Caminho 89" d="M547.025,1039.381c-4.488.9-18.165-3.141-24.112-1.353-5.668,1.827-13.766,6.171-18.711.344-2.958-10.61-1.872-24.415-2.467-35.635-.921-17.352,3.555-24,8.934-29.531,5.148-5.289,16.232-8,26.288-4.845,6.108,1.919,12.342,2.537,18.9,3.716l-.634,15.4c-2.651.6-13.021,1.738-12.972-.334C541.966,999.541,552.23,1029.991,547.025,1039.381Z" transform="translate(-501.615 -967.014)" fill="#282c37"/>
      </g>
      <g id="Grupo_76" data-name="Grupo 76" transform="translate(6.228)">
        <path id="Caminho_90" data-name="Caminho 90" d="M554.178,826.1c-1.766,3.463-6.984,2.4-6.984,2.4a2.331,2.331,0,0,1-3.374.106,3.042,3.042,0,0,1-4.252-.279c-1.279-1.347-.22-2.775-1.856-4.146-1.312-1.1-5.46-2.406-2.7-7.1a4.344,4.344,0,0,1-1.367-5.006c1.457-3.842,4.007-3.325,5.342-4.543,1.491-1.359,2.339-5.862,6.412-3.794,0,0,1.61-2.288,4.018-2.223a4.74,4.74,0,0,1,4.158,3.158,4.509,4.509,0,0,1,3.936-.684,3.964,3.964,0,0,1,2.549,3.669,4.124,4.124,0,0,1-.464,1.809c-.385.844,1.62,2.259,1.565,3.191a18.48,18.48,0,0,1-.87,4.394Z" transform="translate(-533.326 -801.503)" fill="#de6535"/>
        <path id="Caminho_91" data-name="Caminho 91" d="M588.793,847.31h0a9.6,9.6,0,0,1-13.184-3.221l-3.355-5.525a9.6,9.6,0,0,1,3.223-13.184h0a9.6,9.6,0,0,1,13.184,3.223l3.355,5.525A9.6,9.6,0,0,1,588.793,847.31Z" transform="translate(-563.488 -819.569)" fill="#ffa07a"/>
        <path id="Caminho_92" data-name="Caminho 92" d="M655.532,867.865a1,1,0,1,1-1.371-.336A1,1,0,0,1,655.532,867.865Z" transform="translate(-630.043 -854.446)" fill="#000644"/>
        <path id="Caminho_93" data-name="Caminho 93" d="M622.042,884.135a1,1,0,1,1-1.371-.336A1,1,0,0,1,622.042,884.135Z" transform="translate(-603.13 -867.52)" fill="#000644"/>
        <path id="Caminho_94" data-name="Caminho 94" d="M556.34,832.12s-3.176-7.361,1.286-8.241c3.121-.615,12.913-3.372,11.721-5.336-3.71-6.11-9.675-6.64-16.174-2.127-5.831,3.539-6.955,10.183-3.514,17.04s9.814,5.764,9.814,5.764Z" transform="translate(-544.895 -811.09)" fill="#de6535"/>
        <path id="Caminho_95" data-name="Caminho 95" d="M609.251,910.434l-.018,7.178-9.113-.332.047-15.571Z" transform="translate(-587.002 -882.029)" fill="#ffa07a"/>
        <path id="Caminho_96" data-name="Caminho 96" d="M581.455,906.985c1.267,1.312,1.544,3.1.621,3.993s-2.7.552-3.969-.76-1.546-3.1-.621-3.993S580.188,905.673,581.455,906.985Z" transform="translate(-568.374 -885.258)" fill="#ffa07a"/>
        <g id="Grupo_74" data-name="Grupo 74" transform="translate(21.971 10.445)">
          <path id="Caminho_97" data-name="Caminho 97" d="M648.631,855.947a.628.628,0,0,1-.65.112,1.656,1.656,0,0,0-1.709.369.631.631,0,0,1-.9-.884,2.926,2.926,0,0,1,3.074-.658.629.629,0,0,1,.354.819A.653.653,0,0,1,648.631,855.947Z" transform="translate(-645.195 -854.686)" fill="#de6535"/>
        </g>
        <g id="Grupo_75" data-name="Grupo 75" transform="translate(14.917 13.319)">
          <path id="Caminho_98" data-name="Caminho 98" d="M612.752,870.337a.64.64,0,0,1-.463.241,2.179,2.179,0,0,0-1.8,1.379.631.631,0,1,1-1.169-.475,3.441,3.441,0,0,1,2.9-2.164.63.63,0,0,1,.658.6A.643.643,0,0,1,612.752,870.337Z" transform="translate(-609.277 -869.317)" fill="#de6535"/>
        </g>
        <path id="Caminho_99" data-name="Caminho 99" d="M620.243,896.224c.171.379-.318.97-1.092,1.318s-1.54.322-1.711-.059.318-.97,1.092-1.318S620.072,895.845,620.243,896.224Z" transform="translate(-600.893 -877.378)" fill="#f08459"/>
        <path id="Caminho_100" data-name="Caminho 100" d="M662.82,876.488c.157.387-.354.957-1.139,1.275s-1.55.263-1.707-.124.353-.956,1.139-1.275S662.665,876.1,662.82,876.488Z" transform="translate(-635.077 -861.495)" fill="#f08459"/>
        <path id="Caminho_101" data-name="Caminho 101" d="M646.71,886.18a9.049,9.049,0,0,0,2.207,1.6,4.7,4.7,0,0,1-1.2,1.791,2.624,2.624,0,0,0,1.75-2.08A28.84,28.84,0,0,0,646.71,886.18Z" transform="translate(-624.441 -869.549)" fill="#f08459"/>
        <path id="Caminho_102" data-name="Caminho 102" d="M645.639,910.061a.343.343,0,0,0-.132.538,2.566,2.566,0,0,0,4.191-1.758.343.343,0,0,0-.475-.283Z" transform="translate(-623.409 -887.51)" fill="#fff"/>
        <path id="Caminho_103" data-name="Caminho 103" d="M592.23,971.617c0,2.317,2.738,4.2,6.116,4.2s6.116-1.88,6.116-4.2-2.738-4.2-6.116-4.2S592.23,969.3,592.23,971.617Z" transform="translate(-580.661 -934.834)" fill="#ffa07a"/>
      </g>
      <g id="Grupo_77" data-name="Grupo 77" transform="translate(6.624 106.684)">
        <path id="Caminho_104" data-name="Caminho 104" d="M536.395,1431.152l-1.055-.263c1.536-9.665,4.089-28.893,2.76-32.479-1.21-3.262.4-5.36,1.575-6.892a4.153,4.153,0,0,0,1.123-2.074c-.016-2.15-1.994-44.206-2.013-44.632l1.078-.112c.082,1.736,2,42.564,2.017,44.736a4.8,4.8,0,0,1-1.347,2.74c-1.135,1.479-2.42,3.154-1.418,5.857C540.871,1402.78,536.577,1430,536.395,1431.152Z" transform="translate(-535.34 -1344.7)" fill="#f1f2f5"/>
      </g>
      <g id="Grupo_85" data-name="Grupo 85" transform="translate(22.95 26.795)">
        <path id="Caminho_105" data-name="Caminho 105" d="M633.436,1006.228s-.884,8.791-1.8,14.8c-3.6-1-10.58-3.859-10.58-3.859l-2.589,11.694s19.463,5.807,22.482-2.214c2.979-7.917-1.7-21.17-1.7-21.17Z" transform="translate(-618.47 -992.214)" fill="#ffa07a"/>
        <g id="Grupo_84" data-name="Grupo 84" transform="translate(10.006)">
          <g id="Grupo_78" data-name="Grupo 78" transform="translate(2.731 3.944)">
            <path id="Caminho_106" data-name="Caminho 106" d="M685.421,968.268l-.008-.155s-1.4-5.053-2.094-7.365c-.027-1.929,5.358-3.944,8.253-1.834a17.62,17.62,0,0,1-.295,8.206l.083.22A50.228,50.228,0,0,1,685.421,968.268Z" transform="translate(-683.319 -958.015)" fill="#ffa07a"/>
          </g>
          <g id="Grupo_79" data-name="Grupo 79" transform="translate(0 7.302)">
            <path id="Caminho_107" data-name="Caminho 107" d="M674.763,980.759a1.059,1.059,0,0,1-.467-.11l-.01,0a11.754,11.754,0,0,1-4.666-3.871,1.041,1.041,0,1,1,1.675-1.235,9.468,9.468,0,0,0,3.806,3.19,1.183,1.183,0,0,1,.35.208,1.042,1.042,0,0,1-.687,1.823Zm-.687-.259Zm0,0Z" transform="translate(-669.416 -975.116)" fill="#ffa07a"/>
          </g>
          <g id="Grupo_80" data-name="Grupo 80" transform="translate(1.343 1.239)">
            <path id="Caminho_108" data-name="Caminho 108" d="M678.936,951.416a1.038,1.038,0,0,1-.994-.742c-.008-.026-.744-2.514-1.63-5.052a1.036,1.036,0,0,1,1.956-.683c.9,2.587,1.654,5.122,1.662,5.148a1.038,1.038,0,0,1-.7,1.288A1.1,1.1,0,0,1,678.936,951.416Z" transform="translate(-676.254 -944.244)" fill="#ffa07a"/>
          </g>
          <g id="Grupo_81" data-name="Grupo 81" transform="translate(3.506)">
            <path id="Caminho_109" data-name="Caminho 109" d="M689.62,945.586a1.037,1.037,0,0,1-1.017-.843c0-.023-.454-2.365-1.3-5.5a1.036,1.036,0,0,1,2-.54c.868,3.217,1.318,5.556,1.336,5.654a1.036,1.036,0,0,1-.825,1.212A1.119,1.119,0,0,1,689.62,945.586Z" transform="translate(-687.266 -937.936)" fill="#ffa07a"/>
          </g>
          <g id="Grupo_82" data-name="Grupo 82" transform="translate(6.067 0.063)">
            <path id="Caminho_110" data-name="Caminho 110" d="M701.927,944.686a1.036,1.036,0,0,1-1.031-.947c0-.02-.179-2.041-.571-4.264a1.036,1.036,0,0,1,2.041-.363c.411,2.319.589,4.364.6,4.448a1.037,1.037,0,0,1-.945,1.121A.694.694,0,0,1,701.927,944.686Z" transform="translate(-700.308 -938.258)" fill="#ffa07a"/>
          </g>
          <g id="Grupo_83" data-name="Grupo 83" transform="translate(8.635 0.528)">
            <path id="Caminho_111" data-name="Caminho 111" d="M714.846,947.353a1.036,1.036,0,0,1-1.035-1.008,41.01,41.01,0,0,0-.414-4.523,1.037,1.037,0,1,1,2.048-.324,42.986,42.986,0,0,1,.44,4.79,1.036,1.036,0,0,1-1.008,1.065Z" transform="translate(-713.383 -940.623)" fill="#ffa07a"/>
          </g>
        </g>
      </g>
      <g id="Grupo_86" data-name="Grupo 86" transform="translate(16.281 42.671)">
        <path id="Caminho_112" data-name="Caminho 112" d="M593.768,1027.85l-.721-.342.658-1.689-9.2-6.389.458-.66,9.457,6.568a.4.4,0,0,1,.145.475Z" transform="translate(-584.51 -1018.77)" fill="#e2fafa"/>
      </g>
      <g id="Grupo_87" data-name="Grupo 87" transform="translate(4.744 52.12)">
        <path id="Caminho_113" data-name="Caminho 113" d="M543.193,1079.729a.415.415,0,0,1-.118-.018c-.491-.149-12.075-3.775-17.3-12.415l.687-.416c4.568,7.546,14.5,11.26,16.5,11.945l.344-.894.678.273-.408,1.267A.407.407,0,0,1,543.193,1079.729Z" transform="translate(-525.77 -1066.88)" fill="#e2fafa"/>
      </g>
    </g>
    <g id="Grupo_110" data-name="Grupo 110" transform="translate(421.879 83.004)">
      <g id="Grupo_90" data-name="Grupo 90" transform="translate(77.56 110.641)">
        <path id="Caminho_114" data-name="Caminho 114" d="M1776.38,651.606c2.483,3.123,4.138,5.091,4.138,5.091l3.582,4.586s12-10.144,13.173-11.163c-2.473-3.374-8.608,1.084-8.608,1.084-1.571.515-1.85.978-3.309-.277a30,30,0,0,1-2.677-4.576Z" transform="translate(-1776.38 -646.35)" fill="#ffa07a"/>
        <g id="Grupo_89" data-name="Grupo 89" transform="translate(3.851 3.543)">
          <path id="Caminho_115" data-name="Caminho 115" d="M1812.37,675.795l7.866-6.377s.5-1.819-2.65-3.718c.819-.589,2.139-1.308,2.139-1.308a5.9,5.9,0,0,1,2.954,3.009c1.61-1.288,3.8-3.011,3.8-3.011l.754.847-13.579,11.98Z" transform="translate(-1809.153 -664.39)" fill="#f24c3e"/>
          <path id="Caminho_116" data-name="Caminho 116" d="M1804.474,699.276s-3.464-3.934-6.544-1.508c.887,1.332,2.838,4.221,2.838,4.221Z" transform="translate(-1797.549 -690.577)" fill="#f24c3e"/>
          <path id="Caminho_117" data-name="Caminho 117" d="M1796.786,676.062s3.117-.758,5.4-5.973l-1.133-.78a13.96,13.96,0,0,1-5.061,5.491A8.954,8.954,0,0,0,1796.786,676.062Z" transform="translate(-1795.99 -668.344)" fill="#f24c3e"/>
        </g>
      </g>
      <g id="Grupo_92" data-name="Grupo 92" transform="translate(49.404 129.983)">
        <path id="Caminho_118" data-name="Caminho 118" d="M1636.165,744.83c-.2,3.985-.261,6.556-.261,6.556l-.344,5.81s15.708.32,17.263.332c.375-4.168-7.174-4.879-7.174-4.879-1.52-.652-2.035-.489-2.3-2.4a29.986,29.986,0,0,1,1.016-5.2Z" transform="translate(-1635.061 -744.83)" fill="#ffa07a"/>
        <g id="Grupo_91" data-name="Grupo 91" transform="translate(0 5.334)">
          <path id="Caminho_119" data-name="Caminho 119" d="M1633.02,788.774l10.119.416s1.581-1.031.469-4.541a24.858,24.858,0,0,1,2.469.432,5.907,5.907,0,0,1,.228,4.211c2.059.1,4.845.257,4.845.257l.008,1.133-18.11.012Z" transform="translate(-1633.02 -782.164)" fill="#f24c3e"/>
          <path id="Caminho_120" data-name="Caminho 120" d="M1637.592,785.458s0-5.242-3.912-5.458c-.214,1.587-.66,5.044-.66,5.044Z" transform="translate(-1633.02 -778.427)" fill="#f24c3e"/>
          <path id="Caminho_121" data-name="Caminho 121" d="M1636.18,774.235s2.84,1.491,8-.911l-.336-1.333a13.976,13.976,0,0,1-7.428.776A9.189,9.189,0,0,0,1636.18,774.235Z" transform="translate(-1635.559 -771.99)" fill="#f24c3e"/>
        </g>
      </g>
      <path id="Caminho_122" data-name="Caminho 122" d="M1411.232,85.158c-7.377-4-13.393-2.724-16.871,6.32-1.186,3.083-7.015.992-9.033,4.177s-1.039,6.342-.628,7.95c1.442,5.662-4.876,4.643-2.808,12.328.738,2.742,3.728,4.181,5.364,8.875,1.171,3.358,1.063,6.517,4.319,8.477,5.36,3.384,10.305-.464,15.608-1.2,4.083.037,8.245,2.675,11.641-.242,2.634-1.267,4.015.283,6.689-.894,2.53-1.114,4.934-4.065,3.826-6.6-1.438-2.773-2.773-4.382.395-6.155,3.427-2.952,1.078-8.62-.183-12.33-.318-2.492,2.569-3.791.583-7.917-.678-1.406-2.791-1.752-3.309-3.225-.11-3.761.13-6.9-3.362-9.445C1420.394,82.725,1414.379,84.722,1411.232,85.158Z" transform="translate(-1381.472 -83.004)" fill="#000644"/>
      <path id="Caminho_123" data-name="Caminho 123" d="M1556.824,287.23c1.55,3.708,4.733,15.1,2.457,26.459-2.359,7.249-4.437,21.137-4.437,21.137l-1.832-10.146-1.322-7.3,3.74-14.771Z" transform="translate(-1518.259 -247.12)" fill="#282c37"/>
      <path id="Caminho_124" data-name="Caminho 124" d="M1442.749,435.846a22.655,22.655,0,0,0-.377-3.388,54.853,54.853,0,0,0-16.621-2.919c-.98,2.266-4.8,9.011-4.433,14.479.2,2.909.685,5.951,2.416,8.125,1.516,1.905,4.405,3.1,7.683,3.614,0,0,28.667.3,32.276,3.4,4.072,3.5-1.412,19.583-1.758,34.843,2.789,3.327,11.869.452,11.869.452s5.839-32.536,3.445-42.312C1475.976,446.953,1447.614,437.5,1442.749,435.846Z" transform="translate(-1413.472 -361.48)" fill="#2b90d9"/>
      <path id="Caminho_125" data-name="Caminho 125" d="M1569.251,466.326c-6.5-2.728-18.438-2.347-28.221-2.017,5.154,1.789,16.2,5.753,23.177,9.168a19.894,19.894,0,0,0,1.74,8.673c3.078,8.322,14.8,17.063,21.93,26.09,4.134.927,8.6-6.66,8.6-6.66S1575.748,469.054,1569.251,466.326Z" transform="translate(-1509.693 -389.235)" fill="#2b90d9"/>
      <g id="Grupo_93" data-name="Grupo 93" transform="translate(31.204 74.694)">
        <path id="Caminho_126" data-name="Caminho 126" d="M1573.18,493.5c-3.223-3.421-6.646-7.73-8.158-11.817-.063-.171-.13-.348-.2-.534a19.558,19.558,0,0,1-1.577-8.033c-7.1-3.443-18.35-7.455-22.894-9.034l.263-.758c4.61,1.6,16.1,5.7,23.223,9.188a.4.4,0,0,1,.224.383,18.414,18.414,0,0,0,1.512,7.972c.071.187.14.367.2.54a35.122,35.122,0,0,0,7.479,11.25Z" transform="translate(-1540.35 -463.32)" fill="#e2fafa"/>
      </g>
      <path id="Caminho_127" data-name="Caminho 127" d="M1454.666,291.8a15.884,15.884,0,0,0,.247,3.378c-8.127,2.219-14.82,1.013-22.928-1.008-3.5-1.131-2.681-4.39-2.1-6.342,1.673-5.656-.625-13.078-.625-13.078l.145-14.017c1.53-3.08,6.212-5.336,9.376-6.558,1.77-.685,3.064-1.045,3.064-1.045s4.067.181,7.719,0c.962.5,1.821.976,2.589,1.426,5.7,3.345,6.292,5.271,6.292,5.271s1.122,8.966.583,13.728S1454.971,285.357,1454.666,291.8Z" transform="translate(-1419.874 -219.717)" fill="#282c37"/>
      <path id="Caminho_128" data-name="Caminho 128" d="M1490.92,254.548c-.09,2.219-2.463,5.965-6.059,6.053-3.7.092-7.3-3.737-7.353-5.923a2.323,2.323,0,0,1,.043-.513c1.77-.685,3.064-1.045,3.064-1.045s4.068.181,7.719,0C1489.294,253.623,1490.152,254.1,1490.92,254.548Z" transform="translate(-1458.646 -219.709)" fill="#2b90d9"/>
      <g id="Grupo_98" data-name="Grupo 98" transform="translate(17.707 6.18)">
        <path id="Caminho_129" data-name="Caminho 129" d="M1497.178,250.409c.037,1.528-1.65,4.313-4.242,4.378s-5.108-2.616-5.148-4.144,2.033-2.82,4.625-2.883S1497.141,248.881,1497.178,250.409Z" transform="translate(-1484.614 -221.579)" fill="#ffa07a"/>
        <path id="Caminho_130" data-name="Caminho 130" d="M1499.406,153.325h0a8.027,8.027,0,0,1-5.543-9.906l1.469-5.2a8.027,8.027,0,0,1,9.906-5.542h0a8.026,8.026,0,0,1,5.542,9.906l-1.469,5.2C1508.109,152.049,1502.6,154.06,1499.406,153.325Z" transform="translate(-1489.252 -128.854)" fill="#ffa07a"/>
        <path id="Caminho_131" data-name="Caminho 131" d="M1477.99,126.632s2.109-3.645,5.647-2.247c5.827,2.306,7.559-.982,7.559-.982a6.851,6.851,0,0,0,2.058,4.421c4.107-4.619,1.149-12.519-6.962-12.1-6.037-3.6-11.894,1.092-14.127,7.108s3.266,9.763,3.266,9.763Z" transform="translate(-1471.63 -114.471)" fill="#000644"/>
        <path id="Caminho_132" data-name="Caminho 132" d="M1496.708,195l.758,6.682s-1.426.084-3.388.055-3.965.063-3.965.063l-.813-13.907Z" transform="translate(-1485.83 -173.471)" fill="#ffa07a"/>
        <path id="Caminho_133" data-name="Caminho 133" d="M1490.664,171.8c-.081,1.524-1.017,2.712-2.09,2.655s-1.878-1.339-1.8-2.864,1.017-2.712,2.09-2.655S1490.746,170.271,1490.664,171.8Z" transform="translate(-1483.798 -158.234)" fill="#ffa07a"/>
        <g id="Grupo_94" data-name="Grupo 94" transform="translate(16.732 12.898)">
          <path id="Caminho_134" data-name="Caminho 134" d="M1559.065,181.638a.392.392,0,0,1-.23-.147,1.524,1.524,0,0,0-1.52-.53.392.392,0,1,1-.2-.758,2.309,2.309,0,0,1,2.341.815.391.391,0,0,1-.077.548A.386.386,0,0,1,1559.065,181.638Z" transform="translate(-1556.825 -180.144)" fill="#000644"/>
        </g>
        <g id="Grupo_95" data-name="Grupo 95" transform="translate(10.2 11.453)">
          <path id="Caminho_135" data-name="Caminho 135" d="M1523.821,173.663a.394.394,0,0,1-.236-.247.39.39,0,0,1,.254-.491,2.737,2.737,0,0,1,2.8.672.392.392,0,0,1-.577.53,1.963,1.963,0,0,0-1.99-.456A.4.4,0,0,1,1523.821,173.663Z" transform="translate(-1523.566 -172.784)" fill="#000644"/>
        </g>
        <g id="Grupo_96" data-name="Grupo 96" transform="translate(10.115 13.196)">
          <path id="Caminho_136" data-name="Caminho 136" d="M1526.145,182.884a.877.877,0,1,1-.782-.962A.878.878,0,0,1,1526.145,182.884Z" transform="translate(-1524.148 -181.866)" fill="#000644"/>
          <path id="Caminho_137" data-name="Caminho 137" d="M1524.348,181.715l-1.218-.055.277.715Z" transform="translate(-1523.13 -181.66)" fill="#000644"/>
        </g>
        <g id="Grupo_97" data-name="Grupo 97" transform="translate(16.625 15.022)">
          <path id="Caminho_138" data-name="Caminho 138" d="M1557.914,192.019a.834.834,0,1,1-.575-1.029A.834.834,0,0,1,1557.914,192.019Z" transform="translate(-1556.278 -190.958)" fill="#000644"/>
          <path id="Caminho_139" data-name="Caminho 139" d="M1562.31,191.35l.939.35-.487.5Z" transform="translate(-1561.125 -191.273)" fill="#000644"/>
        </g>
        <path id="Caminho_140" data-name="Caminho 140" d="M1539.581,197.96a7.193,7.193,0,0,0-.183,2.168,3.749,3.749,0,0,1-1.719-.081,2.1,2.1,0,0,0,2.145.338A22.791,22.791,0,0,0,1539.581,197.96Z" transform="translate(-1524.708 -181.563)" fill="#f08459"/>
        <path id="Caminho_141" data-name="Caminho 141" d="M1517.326,191.461c-.132.391-.882.489-1.677.22s-1.332-.8-1.2-1.192.882-.489,1.677-.22S1517.458,191.07,1517.326,191.461Z" transform="translate(-1506.023 -175.261)" fill="#f08459"/>
        <path id="Caminho_142" data-name="Caminho 142" d="M1561.547,203.677c-.041.4-.607.672-1.267.6s-1.161-.446-1.12-.848.607-.672,1.267-.6S1561.586,203.276,1561.547,203.677Z" transform="translate(-1541.968 -185.467)" fill="#f08459"/>
        <path id="Caminho_143" data-name="Caminho 143" d="M1528.533,215.031a.29.29,0,0,0-.373.283,2.174,2.174,0,0,0,3.7,1.08.291.291,0,0,0-.163-.44Z" transform="translate(-1517.057 -195.272)" fill="#fff"/>
      </g>
      <g id="Grupo_99" data-name="Grupo 99" transform="translate(20.798 59.224)">
        <path id="Caminho_144" data-name="Caminho 144" d="M1557.81,402.322h25.9l5.112-16.258a1.165,1.165,0,0,0-1.112-1.514h-23.46a1.166,1.166,0,0,0-1.112.815Z" transform="translate(-1543.976 -384.55)" fill="#000644"/>
        <path id="Caminho_145" data-name="Caminho 145" d="M1567.82,402.322h24.792a1.516,1.516,0,0,0,1.446-1.061l4.779-15.2a1.165,1.165,0,0,0-1.112-1.514h-23.46a1.166,1.166,0,0,0-1.112.815Z" transform="translate(-1552.02 -384.55)" fill="#686e9e"/>
        <path id="Caminho_146" data-name="Caminho 146" d="M1645.136,425.664a1.725,1.725,0,1,0,2.168-1.349A1.81,1.81,0,0,0,1645.136,425.664Z" transform="translate(-1614.087 -416.457)" fill="#51567c"/>
        <path id="Caminho_147" data-name="Caminho 147" d="M1489.208,462.79h13.962v2.367h-15.8v-.528A1.838,1.838,0,0,1,1489.208,462.79Z" transform="translate(-1487.37 -447.424)" fill="#000644"/>
      </g>
      <g id="Grupo_107" data-name="Grupo 107" transform="translate(4.474 39.609)">
        <path id="Caminho_148" data-name="Caminho 148" d="M1409.543,286.1c-.546,2.156-6.151,19.988-5.177,23.935,1.51,6.124,11.767,9.575,18.6,13.035l1.338-4.441-11.562-8.848,3.567-13.815S1414.635,279.894,1409.543,286.1Z" transform="translate(-1404.252 -284.677)" fill="#ffa07a"/>
        <g id="Grupo_106" data-name="Grupo 106" transform="translate(18.335 29.931)">
          <g id="Grupo_100" data-name="Grupo 100" transform="translate(0 2.94)">
            <path id="Caminho_149" data-name="Caminho 149" d="M1499.232,453.078a18.277,18.277,0,0,1,4.886-1.027c1.473.128,2.669,4.429.839,6.475-3.105.112-5.462.456-7.241-1.094l-.106-.061C1498.643,456.063,1497.93,454.736,1499.232,453.078Z" transform="translate(-1497.61 -452.041)" fill="#ffa07a"/>
          </g>
          <g id="Grupo_101" data-name="Grupo 101" transform="translate(1.367)">
            <path id="Caminho_150" data-name="Caminho 150" d="M1505.391,442.627a.8.8,0,0,1-.782-.66c-.061-.355-.09-.766.216-.917.407-.251,2.561-1.683,2.779-3.29a.794.794,0,1,1,1.573.214c-.347,2.553-3.239,4.57-3.653,4.641A.749.749,0,0,1,1505.391,442.627Zm-.137-1.577Zm0,0Z" transform="translate(-1504.57 -437.073)" fill="#ffa07a"/>
          </g>
          <g id="Grupo_102" data-name="Grupo 102" transform="translate(5.556 2.815)">
            <path id="Caminho_151" data-name="Caminho 151" d="M1530.757,453.162a.753.753,0,0,1-.094-.006,11.851,11.851,0,0,0-3.745-.061.79.79,0,0,1-.986-.53.8.8,0,0,1,.534-.994,12.107,12.107,0,0,1,4.382.006.8.8,0,0,1-.09,1.585Z" transform="translate(-1525.897 -451.405)" fill="#ffa07a"/>
          </g>
          <g id="Grupo_103" data-name="Grupo 103" transform="translate(5.695 4.602)">
            <path id="Caminho_152" data-name="Caminho 152" d="M1531.908,462.581a.8.8,0,0,1-.259-.043,11.284,11.284,0,0,0-4.162-.4.8.8,0,0,1-.173-1.581,12.727,12.727,0,0,1,4.851.473.8.8,0,0,1-.258,1.548Z" transform="translate(-1526.606 -460.504)" fill="#ffa07a"/>
          </g>
          <g id="Grupo_104" data-name="Grupo 104" transform="translate(6.173 6.243)">
            <path id="Caminho_153" data-name="Caminho 153" d="M1533.225,471.156a.777.777,0,0,1-.385-.1,7.375,7.375,0,0,0-3-.607.794.794,0,1,1-.01-1.589,9.082,9.082,0,0,1,3.783.807.794.794,0,0,1-.387,1.489Z" transform="translate(-1529.04 -468.86)" fill="#ffa07a"/>
          </g>
          <g id="Grupo_105" data-name="Grupo 105" transform="translate(5.108 7.865)">
            <path id="Caminho_154" data-name="Caminho 154" d="M1527.745,479.461a.8.8,0,0,1-.383-.1,7.024,7.024,0,0,0-2.942-.654.794.794,0,0,1-.01-1.589,8.726,8.726,0,0,1,3.718.85.794.794,0,0,1-.383,1.491Z" transform="translate(-1523.62 -477.12)" fill="#ffa07a"/>
          </g>
        </g>
      </g>
      <path id="Caminho_155" data-name="Caminho 155" d="M1405.243,281.1c-2.263,2.942-7.644,23.032-6.67,26.98,1.51,6.124,10.894,7.762,17.725,11.222l2.691-5.882-10.908-7.6,3.567-13.815S1410.335,274.892,1405.243,281.1Z" transform="translate(-1395.12 -241.106)" fill="#282c37"/>
      <g id="Grupo_108" data-name="Grupo 108" transform="translate(12.559 50.804)">
        <path id="Caminho_156" data-name="Caminho 156" d="M1456.47,363.748l-10.882-7.823a.4.4,0,0,1-.159-.43L1449,341.68l.778.2-3.5,13.546,10.541,7.687Z" transform="translate(-1445.416 -341.68)" fill="#383c48"/>
      </g>
      <g id="Grupo_109" data-name="Grupo 109" transform="translate(35.801 45.98)">
        <path id="Caminho_157" data-name="Caminho 157" d="M1564.779,341.181c-2.125-3.665-.257-13.306.414-16.052a9.1,9.1,0,0,0-1.434-7.5l.619-.511a9.743,9.743,0,0,1,1.595,8.2c-1.347,5.507-2.4,12.012-.835,14.718Z" transform="translate(-1563.76 -317.12)" fill="#383c48"/>
      </g>
    </g>
    <g id="Grupo_120" data-name="Grupo 120" transform="translate(333.004 235.563)">
      <g id="Grupo_119" data-name="Grupo 119">
        <g id="Grupo_113" data-name="Grupo 113" transform="translate(55.646 9.633)">
          <path id="Caminho_158" data-name="Caminho 158" d="M1396.325,938.1a6.286,6.286,0,0,1-3.7,2.871s-4.415-1.367-4.411-1.371c1-1.524.764-1.324,1.3-3.2a11.3,11.3,0,0,0,.385-1.473c.546-3.781,3.368-3,4.537-2.451a5.8,5.8,0,0,1,2.31,1.495C1397.223,934.572,1397.732,936.2,1396.325,938.1Z" transform="translate(-1353.657 -927.461)" fill="#ffa07a"/>
          <path id="Caminho_159" data-name="Caminho 159" d="M1247.241,966.7,1236.8,985.316s-13.821,1.1-17.739.817c-5.356-.383-6.709,3.488-6.709,3.488-.082,2.5-1.19,8.787,8.962,8.9,8.612.073,16.89-1.858,21.765-5.026s8.239-24.379,8.164-24.688C1249.128,966.1,1247.241,966.7,1247.241,966.7Z" transform="translate(-1212.282 -955.291)" fill="#ffa07a"/>
          <g id="Grupo_111" data-name="Grupo 111" transform="translate(36.991)">
            <path id="Caminho_160" data-name="Caminho 160" d="M1401.584,915.573a.96.96,0,0,1-.766-1.538,19.8,19.8,0,0,0,2.587-4.529.96.96,0,1,1,1.836.56,21.226,21.226,0,0,1-2.891,5.128A.956.956,0,0,1,1401.584,915.573Z" transform="translate(-1400.625 -908.825)" fill="#ffa07a"/>
          </g>
          <g id="Grupo_112" data-name="Grupo 112" transform="translate(34.247 4.829)">
            <path id="Caminho_161" data-name="Caminho 161" d="M1388.9,939.162a.958.958,0,0,1-.956-.905,6.473,6.473,0,0,0-1.055-3.254.959.959,0,0,1,1.449-1.257,8.283,8.283,0,0,1,1.52,4.405.96.96,0,0,1-.905,1.011Z" transform="translate(-1386.654 -933.414)" fill="#ffa07a"/>
          </g>
        </g>
        <path id="Caminho_162" data-name="Caminho 162" d="M952.527,1119.68s-7.626,12.31-8.52,16.814c-1.387,6.984,11.226,19.974,16.555,26.781l3.078-9.816-8.263-14.836,3.653-8.188Z" transform="translate(-940.966 -1068.636)" fill="#ffa07a"/>
        <g id="Grupo_115" data-name="Grupo 115" transform="translate(11.063 94.64)">
          <path id="Caminho_163" data-name="Caminho 163" d="M1018.684,1343.221l-15.712-1.571c-5.478,13.752-6.55,37.381-7.862,45.832-6.11,11.167-6.947,47.476-6.947,47.476l-.344,5.81s15.708.32,17.264.332c.375-4.168-7.174-4.878-7.174-4.878-1.518-.652-2.035-.489-2.3-2.4s9.559-40.451,9.559-40.451l1.265-3.539c14.968-26.932,16.843-46.942,16.843-46.942Z" transform="translate(-987.321 -1341.65)" fill="#ffa07a"/>
          <g id="Grupo_114" data-name="Grupo 114" transform="translate(0 92.086)">
            <path id="Caminho_164" data-name="Caminho 164" d="M985.28,1827.3l10.116.417s1.581-1.031.469-4.541a24.916,24.916,0,0,1,2.469.432,5.907,5.907,0,0,1,.228,4.211c2.06.1,4.845.257,4.845.257l.008,1.133-18.11.012Z" transform="translate(-985.28 -1820.694)" fill="#51567c"/>
            <path id="Caminho_165" data-name="Caminho 165" d="M989.852,1823.988s0-5.242-3.912-5.458c-.214,1.587-.66,5.043-.66,5.043Z" transform="translate(-985.28 -1816.957)" fill="#51567c"/>
            <path id="Caminho_166" data-name="Caminho 166" d="M988.44,1812.765s2.84,1.491,8-.911l-.336-1.334a13.978,13.978,0,0,1-7.428.776A9.2,9.2,0,0,0,988.44,1812.765Z" transform="translate(-987.819 -1810.52)" fill="#51567c"/>
          </g>
        </g>
        <g id="Grupo_117" data-name="Grupo 117" transform="translate(37.54 90.368)">
          <path id="Caminho_167" data-name="Caminho 167" d="M1121.373,1324.172c-5.478,13.752,8.48,37.381,7.169,45.832-6.11,11.167-6.947,47.476-6.947,47.476l-.344,5.809s15.708.32,17.264.332c.375-4.168-7.175-4.879-7.175-4.879-1.52-.652-2.035-.489-2.3-2.4s8.029-32.29,12.383-42.452c2.054-31.306-9.007-53.995-9.007-53.995Z" transform="translate(-1120.093 -1319.9)" fill="#ffa07a"/>
          <g id="Grupo_116" data-name="Grupo 116" transform="translate(0.659 96.358)">
            <path id="Caminho_168" data-name="Caminho 168" d="M1123.45,1827.3l10.116.417s1.581-1.031.469-4.541a24.916,24.916,0,0,1,2.469.432,5.908,5.908,0,0,1,.228,4.211c2.06.1,4.845.257,4.845.257l.008,1.133-18.11.012Z" transform="translate(-1123.45 -1820.694)" fill="#51567c"/>
            <path id="Caminho_169" data-name="Caminho 169" d="M1128.022,1823.988s0-5.242-3.912-5.458c-.214,1.587-.66,5.043-.66,5.043Z" transform="translate(-1123.45 -1816.957)" fill="#51567c"/>
            <path id="Caminho_170" data-name="Caminho 170" d="M1126.61,1812.765s2.84,1.491,8-.911l-.336-1.334a13.978,13.978,0,0,1-7.428.776A9.168,9.168,0,0,0,1126.61,1812.765Z" transform="translate(-1125.99 -1810.52)" fill="#51567c"/>
          </g>
        </g>
        <path id="Caminho_171" data-name="Caminho 171" d="M995.18,1020.46s-15.3,3.857-27.61,20.575l9.076,13.094,4.364-5.829s6.051,7.177,4.162,13.563-7.685,9.734-6.654,28.969-5.266,27.174-6,43.018c7.9,2.06,17.158,6.552,26.267,3.353,11.321-3.979,21.918,7.595,26.243,7.055,2.4-15.294-1.182-26.506-3.235-43.776-2.314-19.475-11.533-26.7-10.486-33.9a124.988,124.988,0,0,0,.874-21.526l14.068.067,1.225-17.409s-12.163-2.646-22.4-5.114C1000.948,1022.8,995.18,1020.46,995.18,1020.46Z" transform="translate(-959.986 -988.902)" fill="#2b90d9"/>
        <g id="Grupo_118" data-name="Grupo 118" transform="translate(32.156 4.436)">
          <path id="Caminho_172" data-name="Caminho 172" d="M1105.9,905.285h0a8.821,8.821,0,0,1-11.049-5.792l-1.772-5.672a8.821,8.821,0,0,1,5.792-11.049h0a8.821,8.821,0,0,1,11.049,5.792l1.772,5.672C1113.145,898.886,1109.28,904.045,1105.9,905.285Z" transform="translate(-1092.678 -882.368)" fill="#ffa07a"/>
        </g>
        <path id="Caminho_173" data-name="Caminho 173" d="M1051.328,1228.91s16.857,4.851,26.1,1.013c-.259,2.214-.245,5.311-.245,5.311s-14.862,5.107-27.357-1.9C1050.572,1231.363,1051.328,1228.91,1051.328,1228.91Z" transform="translate(-1026.09 -1156.413)" fill="#282c37"/>
        <path id="Caminho_174" data-name="Caminho 174" d="M966.495,859.78c-11.036,0-14.082,2.82-15.849,13.163-1.155,6.75-5.931,13.279-13.891,18.691s-11.464,18.629-2.547,19.9,11.623,2.706,15.443,5.892,16.877,4.14,22.769-16.24S982.128,859.78,966.495,859.78Z" transform="translate(-928.953 -859.78)" fill="#fbd5b7"/>
      </g>
    </g>
    <g id="Grupo_144" data-name="Grupo 144" transform="translate(565.944 211.399)">
      <g id="Grupo_124" data-name="Grupo 124" transform="translate(16.298 192.125)">
        <path id="Caminho_175" data-name="Caminho 175" d="M2267.187,1723.007l.282-8.037-7.929.363-.481,7.1,2.74,2.875Z" transform="translate(-2247.063 -1714.97)" fill="#f08459"/>
        <path id="Caminho_176" data-name="Caminho 176" d="M2267.127,1743.032l-.013-2.355s-3.064,1.546-8.155-.348c-.043.552-.179,2.533-.179,2.533l4.48,2.438Z" transform="translate(-2246.838 -1735.349)" fill="#fff"/>
        <g id="Grupo_123" data-name="Grupo 123" transform="translate(0 7.277)">
          <path id="Caminho_177" data-name="Caminho 177" d="M2198.065,1759.978a1.052,1.052,0,0,0,.238.578c.285.175,9.582.031,15.967-.165l.9-.03c1.742-.059,3.2-.12,4.085-.177.051-.259.092-.515.128-.762a10.963,10.963,0,0,0-1.115-7c-2.257,1.267-5.067,1.461-8.345-.406a11.07,11.07,0,0,1-1.816,1.186,10.678,10.678,0,0,1-1.263.475h0c-.2.061-.4.118-.594.165,0,0,0,0,0,0-.5.124-.986.21-1.459.279h0c-1.919.271-3.6.228-4.873,1.029A4.728,4.728,0,0,0,2198.065,1759.978Z" transform="translate(-2197.978 -1752.02)" fill="#51567c"/>
          <path id="Caminho_178" data-name="Caminho 178" d="M2198.52,1790.266a1.054,1.054,0,0,0,.238.577c.285.175,9.582.031,15.967-.165l.9-.03c1.742-.059,3.2-.12,4.085-.177.051-.259.092-.515.128-.762Z" transform="translate(-2198.414 -1782.308)" fill="#686e9e"/>
          <g id="Grupo_121" data-name="Grupo 121" transform="translate(8.862 1.188)">
            <path id="Caminho_179" data-name="Caminho 179" d="M2243.1,1758.545l.043.012a3.007,3.007,0,0,1,1.581,1.218.479.479,0,0,0,.659.165.48.48,0,0,0,.165-.66,3.581,3.581,0,0,0-1.186-1.21A10.414,10.414,0,0,1,2243.1,1758.545Z" transform="translate(-2243.1 -1758.07)" fill="#686e9e"/>
          </g>
          <g id="Grupo_122" data-name="Grupo 122" transform="translate(6.825 1.828)">
            <path id="Caminho_180" data-name="Caminho 180" d="M2232.73,1761.605l.014,0a2.749,2.749,0,0,1,1.465,1.178.486.486,0,0,0,.307.222.482.482,0,0,0,.519-.719,3.57,3.57,0,0,0-.843-.964s0,0,0,0C2233.688,1761.448,2233.2,1761.537,2232.73,1761.605Z" transform="translate(-2232.73 -1761.326)" fill="#686e9e"/>
          </g>
        </g>
      </g>
      <g id="Grupo_128" data-name="Grupo 128" transform="translate(52.98 192.162)">
        <path id="Caminho_181" data-name="Caminho 181" d="M2386.156,1723.658l-1.406-8.086,8.426-.412,1.161,7.74-2.795,3.064Z" transform="translate(-2384.75 -1715.16)" fill="#f08459"/>
        <path id="Caminho_182" data-name="Caminho 182" d="M2389.937,1745.406l-.277-2.192s3.26,1.22,8.272-.554c.208,1.386.432,2.657.432,2.657l-4.875,2.746Z" transform="translate(-2388.696 -1737.259)" fill="#fff"/>
        <g id="Grupo_127" data-name="Grupo 127" transform="translate(0.001 7.74)">
          <path id="Caminho_183" data-name="Caminho 183" d="M2406.193,1762.528a1.055,1.055,0,0,1-.238.577c-.285.175-9.583.031-15.967-.165l-.9-.029c-1.742-.059-3.2-.12-4.085-.177-.051-.259-.092-.514-.128-.762a10.963,10.963,0,0,1,1.116-7c2.257,1.267,5.067,1.461,8.345-.406a11.067,11.067,0,0,0,1.816,1.186,10.681,10.681,0,0,0,1.263.475h0c.2.061.4.118.593.165,0,0,0,0,0,0,.5.124.985.21,1.459.279h0c1.919.271,3.6.228,4.873,1.029A4.722,4.722,0,0,1,2406.193,1762.528Z" transform="translate(-2384.753 -1754.57)" fill="#51567c"/>
          <path id="Caminho_184" data-name="Caminho 184" d="M2406.705,1792.816a1.05,1.05,0,0,1-.237.577c-.285.175-9.583.031-15.968-.165l-.9-.03c-1.742-.059-3.2-.12-4.085-.177-.051-.259-.092-.515-.127-.762Z" transform="translate(-2385.265 -1784.858)" fill="#686e9e"/>
          <g id="Grupo_125" data-name="Grupo 125" transform="translate(10.147 1.186)">
            <path id="Caminho_185" data-name="Caminho 185" d="M2438.939,1761.085l-.043.012a3.009,3.009,0,0,0-1.583,1.218.479.479,0,0,1-.66.165.48.48,0,0,1-.165-.66,3.582,3.582,0,0,1,1.186-1.21A10.191,10.191,0,0,0,2438.939,1761.085Z" transform="translate(-2436.419 -1760.61)" fill="#686e9e"/>
          </g>
          <g id="Grupo_126" data-name="Grupo 126" transform="translate(12.35 1.828)">
            <path id="Caminho_186" data-name="Caminho 186" d="M2450.01,1764.153l-.014,0a2.749,2.749,0,0,0-1.465,1.178.483.483,0,0,1-.66.167.48.48,0,0,1-.165-.662,3.572,3.572,0,0,1,.842-.965s0,0,0,0C2449.049,1764,2449.536,1764.085,2450.01,1764.153Z" transform="translate(-2447.636 -1763.876)" fill="#686e9e"/>
          </g>
        </g>
      </g>
      <path id="Caminho_187" data-name="Caminho 187" d="M2266.163,1257.61s-.129,31.365.642,46.37c.882,17.148,0,40.977,0,44.962-5.173,4.814-13.271,1.585-12.892.858-1.577-5.607-5.715-33.156-5.715-43.758,0-4.207-4.246-29.505-4.246-29.505s-.043,21.7.125,29.505c.147,6.725.342,42.03-2.5,44.047s-10.37,1.336-11.631-.9-5.028-36.75-4.712-43.147-1.665-17.323-1.436-26.776c.145-5.98,1.015-19.139,1.015-19.139Z" transform="translate(-2202.419 -1155.311)" fill="#282c37"/>
      <path id="Caminho_188" data-name="Caminho 188" d="M2228.216,944.851c-.179-13.064-1.459-24.23-1.459-24.23-1.917-2.223-4.735-4.219-10.223-5.423-1.263-.277-2.425-.526-3.513-.74-6.171-1.222-9.952-1.377-16.137.308-2.186.6-4.668,1.418-7.663,2.508-7.7,2.8-17.692,14.461-16.327,25.112.1.762,3.6,11.931,4.209,12.3,12.074,7.287-16.28-17.258,9.8-17.258,0,0-1.047,13.2-2.355,21.3-1.665,10.311-.952,26.08-.952,26.08a67.844,67.844,0,0,0,10.558-.693c4.643-.809,9.077-1.9,13.665-.666,5.694,1.834,10.048,1.662,17.378-1.66C2225.2,981.788,2228.365,955.7,2228.216,944.851Z" transform="translate(-2161.422 -878.802)" fill="#2b90d9"/>
      <g id="Grupo_129" data-name="Grupo 129" transform="translate(35.404 111.049)">
        <path id="Caminho_189" data-name="Caminho 189" d="M2301.385,1316.493l-1.581-11.5-4.545-1.927.383-.905,5.1,2.158.628,8.135Z" transform="translate(-2295.26 -1302.16)" fill="#51567c"/>
      </g>
      <path id="Caminho_190" data-name="Caminho 190" d="M2310.562,916.572c0,3.248-3.836,5.88-8.567,5.88s-8.565-2.634-8.565-5.88a4.224,4.224,0,0,1,.418-1.819c6.184-1.685,9.965-1.532,16.136-.309A4.29,4.29,0,0,1,2310.562,916.572Z" transform="translate(-2258.385 -878.79)" fill="#fbe9db"/>
      <g id="Grupo_132" data-name="Grupo 132" transform="translate(25.975)">
        <path id="Caminho_191" data-name="Caminho 191" d="M2280.521,790.018h0a9.639,9.639,0,0,0,7.9-11.108l-1.078-6.4a9.64,9.64,0,0,0-11.108-7.9h0a9.64,9.64,0,0,0-7.9,11.108l1.078,6.4A9.64,9.64,0,0,0,2280.521,790.018Z" transform="translate(-2264.084 -759.023)" fill="#ffa07a"/>
        <path id="Caminho_192" data-name="Caminho 192" d="M2285.008,831.688a1,1,0,1,0,.894-1.1A1,1,0,0,0,2285.008,831.688Z" transform="translate(-2277.588 -812.152)" fill="#000644"/>
        <path id="Caminho_193" data-name="Caminho 193" d="M2329.168,824.168a1,1,0,1,0,.894-1.1A1,1,0,0,0,2329.168,824.168Z" transform="translate(-2313.075 -806.109)" fill="#000644"/>
        <path id="Caminho_194" data-name="Caminho 194" d="M2314.5,875.134l.018,7.21,9.156-.334-.029-9.37Z" transform="translate(-2301.292 -845.949)" fill="#ffa07a"/>
        <g id="Grupo_130" data-name="Grupo 130" transform="translate(5.607 16.112)">
          <path id="Caminho_195" data-name="Caminho 195" d="M2276.29,820.814a.634.634,0,0,0,.627-.214,1.67,1.67,0,0,1,1.683-.5.634.634,0,0,0,.367-1.214,2.932,2.932,0,0,0-3.025.905.631.631,0,0,0,.085.892A.606.606,0,0,0,2276.29,820.814Z" transform="translate(-2275.796 -818.776)" fill="#452b52"/>
        </g>
        <g id="Grupo_131" data-name="Grupo 131" transform="translate(14.978 14.284)">
          <path id="Caminho_196" data-name="Caminho 196" d="M2324,811.188a.64.64,0,0,0,.515-.1,2.189,2.189,0,0,1,2.274-.047.633.633,0,1,0,.619-1.106,3.457,3.457,0,0,0-3.637.126.634.634,0,0,0-.139.886A.643.643,0,0,0,2324,811.188Z" transform="translate(-2323.512 -809.472)" fill="#452b52"/>
        </g>
        <path id="Caminho_197" data-name="Caminho 197" d="M2331.01,835.866c.094.409.843.583,1.673.391s1.426-.677,1.331-1.086-.842-.583-1.673-.391S2330.916,835.457,2331.01,835.866Z" transform="translate(-2314.552 -815.462)" fill="#f08459"/>
        <path id="Caminho_198" data-name="Caminho 198" d="M2281.555,844.976c.034.417.75.7,1.6.63s1.51-.463,1.475-.882-.75-.7-1.6-.628S2281.522,844.559,2281.555,844.976Z" transform="translate(-2274.816 -823.003)" fill="#f08459"/>
        <path id="Caminho_199" data-name="Caminho 199" d="M2310.57,841.68a9.058,9.058,0,0,1-.793,2.62,4.717,4.717,0,0,0,2.046.705,2.637,2.637,0,0,1-2.663-.6A28.769,28.769,0,0,1,2310.57,841.68Z" transform="translate(-2297.001 -821.07)" fill="#f08459"/>
        <path id="Caminho_200" data-name="Caminho 200" d="M2317.92,864.762a.345.345,0,0,1,.452.324,2.578,2.578,0,0,1-4.348,1.393.345.345,0,0,1,.179-.526Z" transform="translate(-2300.858 -839.605)" fill="#fff"/>
        <path id="Caminho_201" data-name="Caminho 201" d="M2318.856,910.937c0,2.329-2.75,4.217-6.143,4.217s-6.144-1.887-6.144-4.217,2.75-4.217,6.144-4.217S2318.856,908.607,2318.856,910.937Z" transform="translate(-2294.919 -873.336)" fill="#ffa07a"/>
        <path id="Caminho_202" data-name="Caminho 202" d="M2271.144,753.649c-1.355.078-1.451-6.591-4.707-7.273s-4.009,4.225-11.334,4.394c-4.143.094-2.946,6.581-2.946,6.581s-5.537-2.795-4.643-5.177c1.214-3.237-2.541-6.741,2.263-9.6,2.386-1.422,3.706-1.772,6.236-3.965,2.437-2.115,8.327-2.993,11.079.428,3.058,3.806,5.7,1.817,6.905,7.832C2274.6,749.863,2271.144,753.649,2271.144,753.649Z" transform="translate(-2247.25 -736.742)" fill="#452b52"/>
        <path id="Caminho_203" data-name="Caminho 203" d="M2363.394,814.69c-.216,1.82.646,3.419,1.929,3.57s2.5-1.2,2.712-3.019-.646-3.419-1.929-3.571S2363.61,812.87,2363.394,814.69Z" transform="translate(-2340.557 -796.946)" fill="#ffa07a"/>
      </g>
      <g id="Grupo_135" data-name="Grupo 135" transform="translate(51.633 106.126)">
        <g id="Grupo_133" data-name="Grupo 133" transform="translate(0 0.35)">
          <path id="Caminho_204" data-name="Caminho 204" d="M2378.443,1278.88c-1.577,4.3-.326,14.449,11.392,17.032.155-2.948.041-9.973.041-9.973C2384.178,1285.016,2379.816,1280.616,2378.443,1278.88Z" transform="translate(-2377.894 -1278.88)" fill="#282c37"/>
        </g>
        <g id="Grupo_134" data-name="Grupo 134" transform="translate(0.219)">
          <path id="Caminho_205" data-name="Caminho 205" d="M2391.018,1284.9a22.671,22.671,0,0,1-11.538-6.734l-.469-.841a.349.349,0,0,1,.275-.226.354.354,0,0,1,.332.13c1.723,2.178,6.19,6.114,11.38,6.957C2391.016,1284.487,2391.018,1284.9,2391.018,1284.9Z" transform="translate(-2379.01 -1277.098)" fill="#51567c"/>
        </g>
      </g>
      <path id="Caminho_206" data-name="Caminho 206" d="M2404.25,1508.05s4.7-.933,6.844-3.84C2409.692,1508.876,2407.919,1509.941,2404.25,1508.05Z" transform="translate(-2347.44 -1353.479)" fill="#42495d"/>
      <path id="Caminho_207" data-name="Caminho 207" d="M2247.01,1524.36s3.378,4.26,10.5,2.129C2254.582,1530.04,2247.6,1529.211,2247.01,1524.36Z" transform="translate(-2221.083 -1369.672)" fill="#394053"/>
      <g id="c_1_" transform="translate(0 49.754)">
        <g id="c_4_">
          <g id="c_5_">
            <path id="c_7_" d="M2132.641,1026.5a.951.951,0,0,1-.181.077l-.206.043a1.01,1.01,0,0,1-.98-.515L2115.118,996.8a1.148,1.148,0,0,1-.079-.181.933.933,0,0,1-.027-.124c0-.026-.012-.049-.016-.075s0-.045,0-.067a1.006,1.006,0,0,1,.515-.921.876.876,0,0,1,.177-.077.905.905,0,0,1,.21-.043l24.446-5.034,16.645,31.251-24.356,5.014Z" transform="translate(-2114.996 -990.239)" fill="#90d1d7"/>
            <path id="c_6_" d="M2240.828,990.2a1.007,1.007,0,0,1,1.368.395l16.079,29.244.038.069a1.006,1.006,0,0,1-.393,1.363v0a1.007,1.007,0,0,1-1.369-.395l-16.121-29.309A1.009,1.009,0,0,1,2240.828,990.2Z" transform="translate(-2215.695 -990.07)" fill="#43c59e"/>
          </g>
          <path id="Caminho_208" data-name="Caminho 208" d="M2134.932,1023a1.508,1.508,0,1,1-2.276-.546A1.675,1.675,0,0,1,2134.932,1023Z" transform="translate(-2128.782 -1015.886)" fill="#43c59e"/>
          <path id="Caminho_209" data-name="Caminho 209" d="M2154.577,1021.047a1.067,1.067,0,1,1-1.611-.387A1.185,1.185,0,0,1,2154.577,1021.047Z" transform="translate(-2145.222 -1014.507)" fill="#43c59e"/>
        </g>
        <path id="c_3_" d="M2146.374,1086.965a1.051,1.051,0,0,0-.318-.067l.024-.051a1.82,1.82,0,0,0-.595-2.431,1.075,1.075,0,0,0-.381-.075,1.5,1.5,0,0,0-.79-1.546,1.139,1.139,0,0,0-.668-.047,1.5,1.5,0,0,0-.834-1.616,1.762,1.762,0,0,0-1.3,3.221,1.251,1.251,0,0,0,.586.084,1.713,1.713,0,0,0,.7,2.133,1.067,1.067,0,0,0,.381.075,1.5,1.5,0,0,0,.79,1.546,1.124,1.124,0,0,0,.619.057,1.284,1.284,0,0,0,.695,1.44,1.489,1.489,0,0,0,1.094-2.722Z" transform="translate(-2135.621 -1063.175)" fill="#ffa07a"/>
      </g>
      <g id="Grupo_142" data-name="Grupo 142" transform="translate(23.153 62.491)">
        <g id="Grupo_136" data-name="Grupo 136" transform="translate(3.516 3.324)">
          <path id="Caminho_210" data-name="Caminho 210" d="M2262.532,1077.43l-.141-.078s-4.128-3.657-6-5.376c-1.811-.915-6.2,3.247-5.538,6.955a18.516,18.516,0,0,0,7.891,3.5l.169.179A51.968,51.968,0,0,0,2262.532,1077.43Z" transform="translate(-2250.789 -1071.848)" fill="#ffa07a"/>
        </g>
        <g id="Grupo_137" data-name="Grupo 137" transform="translate(11.883 2.078)">
          <path id="Caminho_211" data-name="Caminho 211" d="M2295.278,1073.513a1.094,1.094,0,0,1-1.078-.913,1.213,1.213,0,0,1,.008-.428,9.958,9.958,0,0,0-.742-5.169,1.1,1.1,0,1,1,2.033-.815,12.334,12.334,0,0,1,.874,6.316l0,.012a1.1,1.1,0,0,1-.907.982A.984.984,0,0,1,2295.278,1073.513Zm1.082-1.275Zm0,0Z" transform="translate(-2293.386 -1065.5)" fill="#ffa07a"/>
        </g>
        <g id="Grupo_138" data-name="Grupo 138" transform="translate(4.031)">
          <path id="Caminho_212" data-name="Caminho 212" d="M2258.562,1061.01a1.085,1.085,0,0,1-.736-.287c-.02-.02-2.07-1.9-4.1-3.944a1.09,1.09,0,1,1,1.548-1.536c1.99,2.007,4,3.851,4.022,3.869a1.09,1.09,0,0,1,.069,1.54A1.07,1.07,0,0,1,2258.562,1061.01Z" transform="translate(-2253.411 -1054.921)" fill="#ffa07a"/>
        </g>
        <g id="Grupo_139" data-name="Grupo 139" transform="translate(1.867 1.474)">
          <path id="Caminho_213" data-name="Caminho 213" d="M2248.141,1068.427a1.079,1.079,0,0,1-.652-.218c-.084-.063-2.088-1.565-4.727-3.869a1.09,1.09,0,0,1,1.433-1.642c2.573,2.247,4.58,3.751,4.6,3.765a1.091,1.091,0,0,1-.654,1.964Z" transform="translate(-2242.388 -1062.428)" fill="#ffa07a"/>
        </g>
        <g id="Grupo_140" data-name="Grupo 140" transform="translate(0.745 3.927)">
          <path id="Caminho_214" data-name="Caminho 214" d="M2241.613,1079.657a1.073,1.073,0,0,1-.558-.155c-.078-.047-1.927-1.157-3.93-2.614a1.089,1.089,0,0,1,1.282-1.762c1.925,1.4,3.749,2.5,3.767,2.506a1.09,1.09,0,0,1-.562,2.025Z" transform="translate(-2236.677 -1074.918)" fill="#ffa07a"/>
        </g>
        <g id="Grupo_141" data-name="Grupo 141" transform="translate(0 6.568)">
          <path id="Caminho_215" data-name="Caminho 215" d="M2238.178,1093.095a1.083,1.083,0,0,1-.5-.124,44.664,44.664,0,0,1-4.325-2.624,1.09,1.09,0,0,1,1.251-1.785,43.225,43.225,0,0,0,4.083,2.477,1.09,1.09,0,0,1-.5,2.056Z" transform="translate(-2232.884 -1088.364)" fill="#ffa07a"/>
        </g>
      </g>
      <path id="Caminho_216" data-name="Caminho 216" d="M2322.019,949.67c4.9,4.319,13.458,33.83-1.683,44.408-8.985,1.157-29.026-9.824-29.026-9.824l3.787-5.833s18.853,2.553,21.315.917c2.174-5.548-.434-15.692-.434-15.692Z" transform="translate(-2256.682 -907.851)" fill="#2b90d9"/>
      <g id="Grupo_143" data-name="Grupo 143" transform="translate(34.235 55.697)">
        <path id="Caminho_217" data-name="Caminho 217" d="M2315.429,1050.8c-4.138,0-9.075-1.2-14.761-3.59a78.356,78.356,0,0,1-11.183-5.843.393.393,0,0,1-.114-.542l3.787-5.833a.389.389,0,0,1,.381-.175c7.387,1,18.913,2.08,20.946,1.037,2.015-5.4-.471-15.227-.5-15.325l.76-.2c.108.418,2.615,10.331.42,15.934a.4.4,0,0,1-.147.185c-2.429,1.612-18.5-.444-21.339-.821l-3.435,5.293c2.589,1.624,19.944,11.949,30.552,8.243l-.077.845A15.637,15.637,0,0,1,2315.429,1050.8Z" transform="translate(-2289.307 -1020.33)" fill="#fbe9db"/>
      </g>
    </g>
    <g id="Grupo_145" data-name="Grupo 145" transform="translate(187.354 323.177)">
      <path id="Caminho_218" data-name="Caminho 218" d="M231.174,1325.1l-9.848,18.018a1.414,1.414,0,0,1-1.921.564L188.09,1326.56a1.415,1.415,0,0,1-.562-1.921l9.848-18.018a1.414,1.414,0,0,1,1.921-.564l31.316,17.116A1.415,1.415,0,0,1,231.174,1325.1Z" transform="translate(-187.354 -1305.883)" fill="#286c9e"/>
      <path id="Caminho_219" data-name="Caminho 219" d="M270.909,1325.089l-.544,1-19.87,2.449a4.509,4.509,0,0,1-4.708-2.522l-8.987-18.829.31-.57a1.416,1.416,0,0,1,1.921-.564l31.314,17.114A1.422,1.422,0,0,1,270.909,1325.089Z" transform="translate(-227.089 -1305.876)" fill="#2b90d9"/>
    </g>
    <g id="Grupo_146" data-name="Grupo 146" transform="translate(620.016 150.114)">
      <path id="Caminho_220" data-name="Caminho 220" d="M2426.7,425.648,2433.563,445a1.415,1.415,0,0,1-.86,1.807l-33.633,11.931a1.415,1.415,0,0,1-1.807-.862l-6.866-19.353a1.414,1.414,0,0,1,.86-1.807l33.633-11.931A1.416,1.416,0,0,1,2426.7,425.648Z" transform="translate(-2390.314 -424.705)" fill="#286c9e"/>
      <path id="Caminho_221" data-name="Caminho 221" d="M2426.7,425.652l.379,1.07-11.42,16.443a4.507,4.507,0,0,1-5.018,1.828l-20.025-5.853-.216-.611a1.415,1.415,0,0,1,.86-1.807l33.631-11.931A1.415,1.415,0,0,1,2426.7,425.652Z" transform="translate(-2390.314 -424.709)" fill="#2b90d9"/>
    </g>
    <g id="Grupo_150" data-name="Grupo 150" transform="translate(208.543 185.051)">
      <g id="Grupo_148" data-name="Grupo 148" transform="translate(30.98)">
        <g id="Grupo_147" data-name="Grupo 147">
          <path id="Caminho_222" data-name="Caminho 222" d="M454.182,626.143a1.376,1.376,0,0,1-.5-.179,1.424,1.424,0,0,1-.511-1.948,41.483,41.483,0,0,1,3.622-5.181,1.424,1.424,0,0,1,2.209,1.8,38.5,38.5,0,0,0-3.372,4.822A1.428,1.428,0,0,1,454.182,626.143Zm7.642-9.482a1.425,1.425,0,0,1-.762-2.437,50.308,50.308,0,0,1,4.8-4.048,1.423,1.423,0,1,1,1.693,2.288,47.549,47.549,0,0,0-4.529,3.818A1.416,1.416,0,0,1,461.824,616.661Zm61.124,2.846a1.454,1.454,0,0,1-.179-.039c-1.911-.554-3.895-1.2-5.894-1.935a1.424,1.424,0,0,1,.978-2.675c1.938.707,3.859,1.338,5.709,1.874a1.424,1.424,0,0,1-.615,2.775ZM471.63,609.443a1.424,1.424,0,0,1-.46-2.659,37.787,37.787,0,0,1,5.8-2.557,1.424,1.424,0,1,1,.917,2.7,34.973,34.973,0,0,0-5.36,2.365A1.434,1.434,0,0,1,471.63,609.443Zm39.846,5.9a1.388,1.388,0,0,1-.346-.1c-1.86-.8-3.747-1.677-5.605-2.6a1.424,1.424,0,1,1,1.261-2.553c1.815.9,3.655,1.75,5.472,2.534a1.425,1.425,0,0,1-.782,2.716Zm-10.943-5.409a1.386,1.386,0,0,1-.475-.165q-1.013-.566-1.986-1.133a24.258,24.258,0,0,0-3.26-1.6,1.424,1.424,0,1,1,1.055-2.646,27.107,27.107,0,0,1,3.641,1.783q.946.554,1.936,1.108a1.423,1.423,0,0,1-.911,2.649Zm-17.389-4.325a1.424,1.424,0,0,1,.049-2.82,26.383,26.383,0,0,1,6.43,0,1.424,1.424,0,0,1-.352,2.826,23.557,23.557,0,0,0-5.737.006A1.522,1.522,0,0,1,483.143,605.608Z" transform="translate(-452.977 -602.589)" fill="#282c37"/>
        </g>
      </g>
      <g id="Grupo_149" data-name="Grupo 149" transform="translate(0 11.613)">
        <path id="Caminho_223" data-name="Caminho 223" d="M325.88,694.02l2.63,6.267-33.27,15.985Z" transform="translate(-295.24 -687.676)" fill="#286c9e"/>
        <path id="Caminho_224" data-name="Caminho 224" d="M336.648,763.39l-2.824,6.3L302.8,771.274Z" transform="translate(-301.315 -743.422)" fill="#286c9e"/>
        <path id="Caminho_225" data-name="Caminho 225" d="M295.24,731.806l53.47-9.6-16.643-8.856Z" transform="translate(-295.24 -703.21)" fill="#2b90d9"/>
        <path id="Caminho_226" data-name="Caminho 226" d="M325.88,668.064l-30.64,22.252,20.3-28.6Z" transform="translate(-295.24 -661.72)" fill="#2b90d9"/>
      </g>
    </g>
    <path id="Caminho_227" data-name="Caminho 227" d="M1299.174,1726.674a15.76,15.76,0,0,0-10.794-13.09,21.906,21.906,0,0,1,17.556,7.764,17.932,17.932,0,0,1,4.706-8.765,10.034,10.034,0,0,0,4,8.709,3.51,3.51,0,0,1,2.746-3.347,9.326,9.326,0,0,0,1.9,4.763,11.948,11.948,0,0,0,3.926-3.117,4.087,4.087,0,0,0,.249-4.71,14.088,14.088,0,0,1,6.234,7.63,2.4,2.4,0,0,1,2.333-2.738,2.6,2.6,0,0,1,2.39,2.795,35.465,35.465,0,0,1,4.472-7.32,11.934,11.934,0,0,1,7.228-4.3,14.446,14.446,0,0,0-3.767,4.788c-.762,1.9-.544,4.356,1.061,5.629a1.333,1.333,0,0,0,.994.357,1.619,1.619,0,0,0,.719-.4l4.358-3.48a9.559,9.559,0,0,0,1.324,4.812,31.1,31.1,0,0,0,11.529-17.047q1.128,7,2.255,14a28.662,28.662,0,0,0,5.9-6.829c-.22,1.612.155,3.932,1.781,3.859a2.748,2.748,0,0,0,1.811-1.224,44.1,44.1,0,0,0,4.089-5.839,39.126,39.126,0,0,0,1.479,14.526l-40.745,4.818Z" transform="translate(-882.652 -1306.057)" fill="#43c59e"/>
    <circle id="Elipse_3" data-name="Elipse 3" cx="7.284" cy="7.284" r="7.284" transform="translate(206.279 274.969) rotate(-1.587)" fill="#d4f2fa"/>
    <g id="Grupo_151" data-name="Grupo 151" transform="translate(208.555 118.267)">
      <path id="Caminho_228" data-name="Caminho 228" d="M304.057,280.065a8.758,8.758,0,1,1,8.758-8.758A8.768,8.768,0,0,1,304.057,280.065Zm0-14.569a5.811,5.811,0,1,0,5.812,5.811A5.818,5.818,0,0,0,304.057,265.5Z" transform="translate(-295.3 -262.55)" fill="#d4f2fa"/>
    </g>
    <circle id="Elipse_4" data-name="Elipse 4" cx="7.284" cy="7.284" r="7.284" transform="translate(679.092 353.819) rotate(-89.267)" fill="#d4f2fa"/>
    <circle id="Elipse_5" data-name="Elipse 5" cx="7.284" cy="7.284" r="7.284" transform="translate(608.597 106.998) rotate(-4.215)" fill="#d4f2fa"/>
    <path id="Caminho_229" data-name="Caminho 229" d="M2413.28,148.08a4.57,4.57,0,1,1-4.57-4.57A4.571,4.571,0,0,1,2413.28,148.08Z" transform="translate(-1781.408 -48.622)" fill="#d4f2fa"/>
    <path id="Caminho_230" data-name="Caminho 230" d="M268.377,1025.218a3.368,3.368,0,1,1-3.368-3.368A3.369,3.369,0,0,1,268.377,1025.218Z" transform="translate(-59.696 -754.456)" fill="#d4f2fa"/>
    <circle id="Elipse_6" data-name="Elipse 6" cx="3.869" cy="3.869" r="3.869" transform="translate(220.741 114.538) rotate(-80.782)" fill="#d4f2fa"/>
    <path id="Caminho_231" data-name="Caminho 231" d="M1830.878,270.749a3.869,3.869,0,1,1-3.869-3.869A3.869,3.869,0,0,1,1830.878,270.749Z" transform="translate(-1314.517 -147.762)" fill="#d4f2fa"/>
  </g>
</svg>
